%TF.GenerationSoftware,KiCad,Pcbnew,6.0.2+dfsg-1*%
%TF.CreationDate,2022-10-11T15:46:28-06:00*%
%TF.ProjectId,lvt_sao,6c76745f-7361-46f2-9e6b-696361645f70,rev?*%
%TF.SameCoordinates,Original*%
%TF.FileFunction,Legend,Bot*%
%TF.FilePolarity,Positive*%
%FSLAX46Y46*%
G04 Gerber Fmt 4.6, Leading zero omitted, Abs format (unit mm)*
G04 Created by KiCad (PCBNEW 6.0.2+dfsg-1) date 2022-10-11 15:46:28*
%MOMM*%
%LPD*%
G01*
G04 APERTURE LIST*
%ADD10C,0.150000*%
%ADD11C,0.120000*%
%ADD12C,0.700000*%
%ADD13C,0.127000*%
%ADD14C,0.200000*%
G04 APERTURE END LIST*
D10*
X174404761Y-132912619D02*
X174357142Y-132865000D01*
X174261904Y-132817380D01*
X174023809Y-132817380D01*
X173928571Y-132865000D01*
X173880952Y-132912619D01*
X173833333Y-133007857D01*
X173833333Y-133103095D01*
X173880952Y-133245952D01*
X174452380Y-133817380D01*
X173833333Y-133817380D01*
X173214285Y-132817380D02*
X173119047Y-132817380D01*
X173023809Y-132865000D01*
X172976190Y-132912619D01*
X172928571Y-133007857D01*
X172880952Y-133198333D01*
X172880952Y-133436428D01*
X172928571Y-133626904D01*
X172976190Y-133722142D01*
X173023809Y-133769761D01*
X173119047Y-133817380D01*
X173214285Y-133817380D01*
X173309523Y-133769761D01*
X173357142Y-133722142D01*
X173404761Y-133626904D01*
X173452380Y-133436428D01*
X173452380Y-133198333D01*
X173404761Y-133007857D01*
X173357142Y-132912619D01*
X173309523Y-132865000D01*
X173214285Y-132817380D01*
X172500000Y-132912619D02*
X172452380Y-132865000D01*
X172357142Y-132817380D01*
X172119047Y-132817380D01*
X172023809Y-132865000D01*
X171976190Y-132912619D01*
X171928571Y-133007857D01*
X171928571Y-133103095D01*
X171976190Y-133245952D01*
X172547619Y-133817380D01*
X171928571Y-133817380D01*
X171547619Y-132912619D02*
X171500000Y-132865000D01*
X171404761Y-132817380D01*
X171166666Y-132817380D01*
X171071428Y-132865000D01*
X171023809Y-132912619D01*
X170976190Y-133007857D01*
X170976190Y-133103095D01*
X171023809Y-133245952D01*
X171595238Y-133817380D01*
X170976190Y-133817380D01*
X169785714Y-133436428D02*
X169023809Y-133436428D01*
X167785714Y-133817380D02*
X167785714Y-132817380D01*
X167547619Y-132817380D01*
X167404761Y-132865000D01*
X167309523Y-132960238D01*
X167261904Y-133055476D01*
X167214285Y-133245952D01*
X167214285Y-133388809D01*
X167261904Y-133579285D01*
X167309523Y-133674523D01*
X167404761Y-133769761D01*
X167547619Y-133817380D01*
X167785714Y-133817380D01*
X166404761Y-133769761D02*
X166500000Y-133817380D01*
X166690476Y-133817380D01*
X166785714Y-133769761D01*
X166833333Y-133674523D01*
X166833333Y-133293571D01*
X166785714Y-133198333D01*
X166690476Y-133150714D01*
X166500000Y-133150714D01*
X166404761Y-133198333D01*
X166357142Y-133293571D01*
X166357142Y-133388809D01*
X166833333Y-133484047D01*
X165976190Y-133769761D02*
X165880952Y-133817380D01*
X165690476Y-133817380D01*
X165595238Y-133769761D01*
X165547619Y-133674523D01*
X165547619Y-133626904D01*
X165595238Y-133531666D01*
X165690476Y-133484047D01*
X165833333Y-133484047D01*
X165928571Y-133436428D01*
X165976190Y-133341190D01*
X165976190Y-133293571D01*
X165928571Y-133198333D01*
X165833333Y-133150714D01*
X165690476Y-133150714D01*
X165595238Y-133198333D01*
X165119047Y-133817380D02*
X165119047Y-133150714D01*
X165119047Y-132817380D02*
X165166666Y-132865000D01*
X165119047Y-132912619D01*
X165071428Y-132865000D01*
X165119047Y-132817380D01*
X165119047Y-132912619D01*
X164214285Y-133150714D02*
X164214285Y-133960238D01*
X164261904Y-134055476D01*
X164309523Y-134103095D01*
X164404761Y-134150714D01*
X164547619Y-134150714D01*
X164642857Y-134103095D01*
X164214285Y-133769761D02*
X164309523Y-133817380D01*
X164500000Y-133817380D01*
X164595238Y-133769761D01*
X164642857Y-133722142D01*
X164690476Y-133626904D01*
X164690476Y-133341190D01*
X164642857Y-133245952D01*
X164595238Y-133198333D01*
X164500000Y-133150714D01*
X164309523Y-133150714D01*
X164214285Y-133198333D01*
X163738095Y-133150714D02*
X163738095Y-133817380D01*
X163738095Y-133245952D02*
X163690476Y-133198333D01*
X163595238Y-133150714D01*
X163452380Y-133150714D01*
X163357142Y-133198333D01*
X163309523Y-133293571D01*
X163309523Y-133817380D01*
X162071428Y-133817380D02*
X162071428Y-132817380D01*
X162071428Y-133198333D02*
X161976190Y-133150714D01*
X161785714Y-133150714D01*
X161690476Y-133198333D01*
X161642857Y-133245952D01*
X161595238Y-133341190D01*
X161595238Y-133626904D01*
X161642857Y-133722142D01*
X161690476Y-133769761D01*
X161785714Y-133817380D01*
X161976190Y-133817380D01*
X162071428Y-133769761D01*
X161261904Y-133150714D02*
X161023809Y-133817380D01*
X160785714Y-133150714D02*
X161023809Y-133817380D01*
X161119047Y-134055476D01*
X161166666Y-134103095D01*
X161261904Y-134150714D01*
X160404761Y-133722142D02*
X160357142Y-133769761D01*
X160404761Y-133817380D01*
X160452380Y-133769761D01*
X160404761Y-133722142D01*
X160404761Y-133817380D01*
X160404761Y-133198333D02*
X160357142Y-133245952D01*
X160404761Y-133293571D01*
X160452380Y-133245952D01*
X160404761Y-133198333D01*
X160404761Y-133293571D01*
X171142857Y-135427380D02*
X171142857Y-134427380D01*
X170809523Y-135141666D01*
X170476190Y-134427380D01*
X170476190Y-135427380D01*
X170000000Y-135427380D02*
X170000000Y-134760714D01*
X170000000Y-134427380D02*
X170047619Y-134475000D01*
X170000000Y-134522619D01*
X169952380Y-134475000D01*
X170000000Y-134427380D01*
X170000000Y-134522619D01*
X169523809Y-135427380D02*
X169523809Y-134427380D01*
X169428571Y-135046428D02*
X169142857Y-135427380D01*
X169142857Y-134760714D02*
X169523809Y-135141666D01*
X168333333Y-135379761D02*
X168428571Y-135427380D01*
X168619047Y-135427380D01*
X168714285Y-135379761D01*
X168761904Y-135284523D01*
X168761904Y-134903571D01*
X168714285Y-134808333D01*
X168619047Y-134760714D01*
X168428571Y-134760714D01*
X168333333Y-134808333D01*
X168285714Y-134903571D01*
X168285714Y-134998809D01*
X168761904Y-135094047D01*
X167142857Y-135141666D02*
X166666666Y-135141666D01*
X167238095Y-135427380D02*
X166904761Y-134427380D01*
X166571428Y-135427380D01*
X166238095Y-135427380D02*
X166238095Y-134427380D01*
X166238095Y-134808333D02*
X166142857Y-134760714D01*
X165952380Y-134760714D01*
X165857142Y-134808333D01*
X165809523Y-134855952D01*
X165761904Y-134951190D01*
X165761904Y-135236904D01*
X165809523Y-135332142D01*
X165857142Y-135379761D01*
X165952380Y-135427380D01*
X166142857Y-135427380D01*
X166238095Y-135379761D01*
X165333333Y-135427380D02*
X165333333Y-134427380D01*
X165333333Y-134808333D02*
X165238095Y-134760714D01*
X165047619Y-134760714D01*
X164952380Y-134808333D01*
X164904761Y-134855952D01*
X164857142Y-134951190D01*
X164857142Y-135236904D01*
X164904761Y-135332142D01*
X164952380Y-135379761D01*
X165047619Y-135427380D01*
X165238095Y-135427380D01*
X165333333Y-135379761D01*
X164285714Y-135427380D02*
X164380952Y-135379761D01*
X164428571Y-135332142D01*
X164476190Y-135236904D01*
X164476190Y-134951190D01*
X164428571Y-134855952D01*
X164380952Y-134808333D01*
X164285714Y-134760714D01*
X164142857Y-134760714D01*
X164047619Y-134808333D01*
X164000000Y-134855952D01*
X163952380Y-134951190D01*
X163952380Y-135236904D01*
X164000000Y-135332142D01*
X164047619Y-135379761D01*
X164142857Y-135427380D01*
X164285714Y-135427380D01*
X163666666Y-134760714D02*
X163285714Y-134760714D01*
X163523809Y-134427380D02*
X163523809Y-135284523D01*
X163476190Y-135379761D01*
X163380952Y-135427380D01*
X163285714Y-135427380D01*
X163095238Y-134760714D02*
X162714285Y-134760714D01*
X162952380Y-134427380D02*
X162952380Y-135284523D01*
X162904761Y-135379761D01*
X162809523Y-135427380D01*
X162714285Y-135427380D01*
X177047619Y-136370714D02*
X177047619Y-137180238D01*
X177095238Y-137275476D01*
X177142857Y-137323095D01*
X177238095Y-137370714D01*
X177380952Y-137370714D01*
X177476190Y-137323095D01*
X177047619Y-136989761D02*
X177142857Y-137037380D01*
X177333333Y-137037380D01*
X177428571Y-136989761D01*
X177476190Y-136942142D01*
X177523809Y-136846904D01*
X177523809Y-136561190D01*
X177476190Y-136465952D01*
X177428571Y-136418333D01*
X177333333Y-136370714D01*
X177142857Y-136370714D01*
X177047619Y-136418333D01*
X176571428Y-137037380D02*
X176571428Y-136370714D01*
X176571428Y-136037380D02*
X176619047Y-136085000D01*
X176571428Y-136132619D01*
X176523809Y-136085000D01*
X176571428Y-136037380D01*
X176571428Y-136132619D01*
X176238095Y-136370714D02*
X175857142Y-136370714D01*
X176095238Y-136037380D02*
X176095238Y-136894523D01*
X176047619Y-136989761D01*
X175952380Y-137037380D01*
X175857142Y-137037380D01*
X175523809Y-137037380D02*
X175523809Y-136037380D01*
X175095238Y-137037380D02*
X175095238Y-136513571D01*
X175142857Y-136418333D01*
X175238095Y-136370714D01*
X175380952Y-136370714D01*
X175476190Y-136418333D01*
X175523809Y-136465952D01*
X174190476Y-136370714D02*
X174190476Y-137037380D01*
X174619047Y-136370714D02*
X174619047Y-136894523D01*
X174571428Y-136989761D01*
X174476190Y-137037380D01*
X174333333Y-137037380D01*
X174238095Y-136989761D01*
X174190476Y-136942142D01*
X173714285Y-137037380D02*
X173714285Y-136037380D01*
X173714285Y-136418333D02*
X173619047Y-136370714D01*
X173428571Y-136370714D01*
X173333333Y-136418333D01*
X173285714Y-136465952D01*
X173238095Y-136561190D01*
X173238095Y-136846904D01*
X173285714Y-136942142D01*
X173333333Y-136989761D01*
X173428571Y-137037380D01*
X173619047Y-137037380D01*
X173714285Y-136989761D01*
X172809523Y-136942142D02*
X172761904Y-136989761D01*
X172809523Y-137037380D01*
X172857142Y-136989761D01*
X172809523Y-136942142D01*
X172809523Y-137037380D01*
X171904761Y-136989761D02*
X172000000Y-137037380D01*
X172190476Y-137037380D01*
X172285714Y-136989761D01*
X172333333Y-136942142D01*
X172380952Y-136846904D01*
X172380952Y-136561190D01*
X172333333Y-136465952D01*
X172285714Y-136418333D01*
X172190476Y-136370714D01*
X172000000Y-136370714D01*
X171904761Y-136418333D01*
X171333333Y-137037380D02*
X171428571Y-136989761D01*
X171476190Y-136942142D01*
X171523809Y-136846904D01*
X171523809Y-136561190D01*
X171476190Y-136465952D01*
X171428571Y-136418333D01*
X171333333Y-136370714D01*
X171190476Y-136370714D01*
X171095238Y-136418333D01*
X171047619Y-136465952D01*
X171000000Y-136561190D01*
X171000000Y-136846904D01*
X171047619Y-136942142D01*
X171095238Y-136989761D01*
X171190476Y-137037380D01*
X171333333Y-137037380D01*
X170571428Y-137037380D02*
X170571428Y-136370714D01*
X170571428Y-136465952D02*
X170523809Y-136418333D01*
X170428571Y-136370714D01*
X170285714Y-136370714D01*
X170190476Y-136418333D01*
X170142857Y-136513571D01*
X170142857Y-137037380D01*
X170142857Y-136513571D02*
X170095238Y-136418333D01*
X170000000Y-136370714D01*
X169857142Y-136370714D01*
X169761904Y-136418333D01*
X169714285Y-136513571D01*
X169714285Y-137037380D01*
X168523809Y-135989761D02*
X169380952Y-137275476D01*
X168333333Y-136370714D02*
X167952380Y-136370714D01*
X168190476Y-137037380D02*
X168190476Y-136180238D01*
X168142857Y-136085000D01*
X168047619Y-136037380D01*
X167952380Y-136037380D01*
X167190476Y-136370714D02*
X167190476Y-137037380D01*
X167619047Y-136370714D02*
X167619047Y-136894523D01*
X167571428Y-136989761D01*
X167476190Y-137037380D01*
X167333333Y-137037380D01*
X167238095Y-136989761D01*
X167190476Y-136942142D01*
X166714285Y-137037380D02*
X166714285Y-136370714D01*
X166714285Y-136561190D02*
X166666666Y-136465952D01*
X166619047Y-136418333D01*
X166523809Y-136370714D01*
X166428571Y-136370714D01*
X166095238Y-137037380D02*
X166095238Y-136370714D01*
X166095238Y-136561190D02*
X166047619Y-136465952D01*
X166000000Y-136418333D01*
X165904761Y-136370714D01*
X165809523Y-136370714D01*
X165571428Y-136370714D02*
X165333333Y-137037380D01*
X165095238Y-136370714D02*
X165333333Y-137037380D01*
X165428571Y-137275476D01*
X165476190Y-137323095D01*
X165571428Y-137370714D01*
X164761904Y-136989761D02*
X164666666Y-137037380D01*
X164476190Y-137037380D01*
X164380952Y-136989761D01*
X164333333Y-136894523D01*
X164333333Y-136846904D01*
X164380952Y-136751666D01*
X164476190Y-136704047D01*
X164619047Y-136704047D01*
X164714285Y-136656428D01*
X164761904Y-136561190D01*
X164761904Y-136513571D01*
X164714285Y-136418333D01*
X164619047Y-136370714D01*
X164476190Y-136370714D01*
X164380952Y-136418333D01*
X163476190Y-137037380D02*
X163476190Y-136513571D01*
X163523809Y-136418333D01*
X163619047Y-136370714D01*
X163809523Y-136370714D01*
X163904761Y-136418333D01*
X163476190Y-136989761D02*
X163571428Y-137037380D01*
X163809523Y-137037380D01*
X163904761Y-136989761D01*
X163952380Y-136894523D01*
X163952380Y-136799285D01*
X163904761Y-136704047D01*
X163809523Y-136656428D01*
X163571428Y-136656428D01*
X163476190Y-136608809D01*
X162857142Y-137037380D02*
X162952380Y-136989761D01*
X163000000Y-136894523D01*
X163000000Y-136037380D01*
X162047619Y-137037380D02*
X162047619Y-136513571D01*
X162095238Y-136418333D01*
X162190476Y-136370714D01*
X162380952Y-136370714D01*
X162476190Y-136418333D01*
X162047619Y-136989761D02*
X162142857Y-137037380D01*
X162380952Y-137037380D01*
X162476190Y-136989761D01*
X162523809Y-136894523D01*
X162523809Y-136799285D01*
X162476190Y-136704047D01*
X162380952Y-136656428D01*
X162142857Y-136656428D01*
X162047619Y-136608809D01*
X161571428Y-137037380D02*
X161571428Y-136370714D01*
X161571428Y-136465952D02*
X161523809Y-136418333D01*
X161428571Y-136370714D01*
X161285714Y-136370714D01*
X161190476Y-136418333D01*
X161142857Y-136513571D01*
X161142857Y-137037380D01*
X161142857Y-136513571D02*
X161095238Y-136418333D01*
X161000000Y-136370714D01*
X160857142Y-136370714D01*
X160761904Y-136418333D01*
X160714285Y-136513571D01*
X160714285Y-137037380D01*
X159809523Y-137037380D02*
X159809523Y-136513571D01*
X159857142Y-136418333D01*
X159952380Y-136370714D01*
X160142857Y-136370714D01*
X160238095Y-136418333D01*
X159809523Y-136989761D02*
X159904761Y-137037380D01*
X160142857Y-137037380D01*
X160238095Y-136989761D01*
X160285714Y-136894523D01*
X160285714Y-136799285D01*
X160238095Y-136704047D01*
X160142857Y-136656428D01*
X159904761Y-136656428D01*
X159809523Y-136608809D01*
X159333333Y-136370714D02*
X159333333Y-137037380D01*
X159333333Y-136465952D02*
X159285714Y-136418333D01*
X159190476Y-136370714D01*
X159047619Y-136370714D01*
X158952380Y-136418333D01*
X158904761Y-136513571D01*
X158904761Y-137037380D01*
X158000000Y-137037380D02*
X158000000Y-136037380D01*
X158000000Y-136989761D02*
X158095238Y-137037380D01*
X158285714Y-137037380D01*
X158380952Y-136989761D01*
X158428571Y-136942142D01*
X158476190Y-136846904D01*
X158476190Y-136561190D01*
X158428571Y-136465952D01*
X158380952Y-136418333D01*
X158285714Y-136370714D01*
X158095238Y-136370714D01*
X158000000Y-136418333D01*
X157142857Y-136989761D02*
X157238095Y-137037380D01*
X157428571Y-137037380D01*
X157523809Y-136989761D01*
X157571428Y-136894523D01*
X157571428Y-136513571D01*
X157523809Y-136418333D01*
X157428571Y-136370714D01*
X157238095Y-136370714D01*
X157142857Y-136418333D01*
X157095238Y-136513571D01*
X157095238Y-136608809D01*
X157571428Y-136704047D01*
X156666666Y-137037380D02*
X156666666Y-136370714D01*
X156666666Y-136561190D02*
X156619047Y-136465952D01*
X156571428Y-136418333D01*
X156476190Y-136370714D01*
X156380952Y-136370714D01*
X177476190Y-137980714D02*
X177095238Y-137980714D01*
X177333333Y-138647380D02*
X177333333Y-137790238D01*
X177285714Y-137695000D01*
X177190476Y-137647380D01*
X177095238Y-137647380D01*
X176333333Y-137980714D02*
X176333333Y-138647380D01*
X176761904Y-137980714D02*
X176761904Y-138504523D01*
X176714285Y-138599761D01*
X176619047Y-138647380D01*
X176476190Y-138647380D01*
X176380952Y-138599761D01*
X176333333Y-138552142D01*
X175857142Y-138647380D02*
X175857142Y-137980714D01*
X175857142Y-138171190D02*
X175809523Y-138075952D01*
X175761904Y-138028333D01*
X175666666Y-137980714D01*
X175571428Y-137980714D01*
X175238095Y-138647380D02*
X175238095Y-137980714D01*
X175238095Y-138171190D02*
X175190476Y-138075952D01*
X175142857Y-138028333D01*
X175047619Y-137980714D01*
X174952380Y-137980714D01*
X174714285Y-137980714D02*
X174476190Y-138647380D01*
X174238095Y-137980714D02*
X174476190Y-138647380D01*
X174571428Y-138885476D01*
X174619047Y-138933095D01*
X174714285Y-138980714D01*
X173904761Y-138599761D02*
X173809523Y-138647380D01*
X173619047Y-138647380D01*
X173523809Y-138599761D01*
X173476190Y-138504523D01*
X173476190Y-138456904D01*
X173523809Y-138361666D01*
X173619047Y-138314047D01*
X173761904Y-138314047D01*
X173857142Y-138266428D01*
X173904761Y-138171190D01*
X173904761Y-138123571D01*
X173857142Y-138028333D01*
X173761904Y-137980714D01*
X173619047Y-137980714D01*
X173523809Y-138028333D01*
X172619047Y-138647380D02*
X172619047Y-138123571D01*
X172666666Y-138028333D01*
X172761904Y-137980714D01*
X172952380Y-137980714D01*
X173047619Y-138028333D01*
X172619047Y-138599761D02*
X172714285Y-138647380D01*
X172952380Y-138647380D01*
X173047619Y-138599761D01*
X173095238Y-138504523D01*
X173095238Y-138409285D01*
X173047619Y-138314047D01*
X172952380Y-138266428D01*
X172714285Y-138266428D01*
X172619047Y-138218809D01*
X172000000Y-138647380D02*
X172095238Y-138599761D01*
X172142857Y-138504523D01*
X172142857Y-137647380D01*
X171190476Y-138647380D02*
X171190476Y-138123571D01*
X171238095Y-138028333D01*
X171333333Y-137980714D01*
X171523809Y-137980714D01*
X171619047Y-138028333D01*
X171190476Y-138599761D02*
X171285714Y-138647380D01*
X171523809Y-138647380D01*
X171619047Y-138599761D01*
X171666666Y-138504523D01*
X171666666Y-138409285D01*
X171619047Y-138314047D01*
X171523809Y-138266428D01*
X171285714Y-138266428D01*
X171190476Y-138218809D01*
X170714285Y-138647380D02*
X170714285Y-137980714D01*
X170714285Y-138075952D02*
X170666666Y-138028333D01*
X170571428Y-137980714D01*
X170428571Y-137980714D01*
X170333333Y-138028333D01*
X170285714Y-138123571D01*
X170285714Y-138647380D01*
X170285714Y-138123571D02*
X170238095Y-138028333D01*
X170142857Y-137980714D01*
X170000000Y-137980714D01*
X169904761Y-138028333D01*
X169857142Y-138123571D01*
X169857142Y-138647380D01*
X168952380Y-138647380D02*
X168952380Y-138123571D01*
X169000000Y-138028333D01*
X169095238Y-137980714D01*
X169285714Y-137980714D01*
X169380952Y-138028333D01*
X168952380Y-138599761D02*
X169047619Y-138647380D01*
X169285714Y-138647380D01*
X169380952Y-138599761D01*
X169428571Y-138504523D01*
X169428571Y-138409285D01*
X169380952Y-138314047D01*
X169285714Y-138266428D01*
X169047619Y-138266428D01*
X168952380Y-138218809D01*
X168476190Y-137980714D02*
X168476190Y-138647380D01*
X168476190Y-138075952D02*
X168428571Y-138028333D01*
X168333333Y-137980714D01*
X168190476Y-137980714D01*
X168095238Y-138028333D01*
X168047619Y-138123571D01*
X168047619Y-138647380D01*
X167142857Y-138647380D02*
X167142857Y-137647380D01*
X167142857Y-138599761D02*
X167238095Y-138647380D01*
X167428571Y-138647380D01*
X167523809Y-138599761D01*
X167571428Y-138552142D01*
X167619047Y-138456904D01*
X167619047Y-138171190D01*
X167571428Y-138075952D01*
X167523809Y-138028333D01*
X167428571Y-137980714D01*
X167238095Y-137980714D01*
X167142857Y-138028333D01*
X166285714Y-138599761D02*
X166380952Y-138647380D01*
X166571428Y-138647380D01*
X166666666Y-138599761D01*
X166714285Y-138504523D01*
X166714285Y-138123571D01*
X166666666Y-138028333D01*
X166571428Y-137980714D01*
X166380952Y-137980714D01*
X166285714Y-138028333D01*
X166238095Y-138123571D01*
X166238095Y-138218809D01*
X166714285Y-138314047D01*
X165809523Y-138647380D02*
X165809523Y-137980714D01*
X165809523Y-138171190D02*
X165761904Y-138075952D01*
X165714285Y-138028333D01*
X165619047Y-137980714D01*
X165523809Y-137980714D01*
X164571428Y-138171190D02*
X164619047Y-138123571D01*
X164714285Y-138075952D01*
X164809523Y-138075952D01*
X164904761Y-138123571D01*
X164952380Y-138171190D01*
X165000000Y-138266428D01*
X165000000Y-138361666D01*
X164952380Y-138456904D01*
X164904761Y-138504523D01*
X164809523Y-138552142D01*
X164714285Y-138552142D01*
X164619047Y-138504523D01*
X164571428Y-138456904D01*
X164571428Y-138075952D02*
X164571428Y-138456904D01*
X164523809Y-138504523D01*
X164476190Y-138504523D01*
X164380952Y-138456904D01*
X164333333Y-138361666D01*
X164333333Y-138123571D01*
X164428571Y-137980714D01*
X164571428Y-137885476D01*
X164761904Y-137837857D01*
X164952380Y-137885476D01*
X165095238Y-137980714D01*
X165190476Y-138123571D01*
X165238095Y-138314047D01*
X165190476Y-138504523D01*
X165095238Y-138647380D01*
X164952380Y-138742619D01*
X164761904Y-138790238D01*
X164571428Y-138742619D01*
X164428571Y-138647380D01*
X163476190Y-137980714D02*
X163476190Y-138790238D01*
X163523809Y-138885476D01*
X163571428Y-138933095D01*
X163666666Y-138980714D01*
X163809523Y-138980714D01*
X163904761Y-138933095D01*
X163476190Y-138599761D02*
X163571428Y-138647380D01*
X163761904Y-138647380D01*
X163857142Y-138599761D01*
X163904761Y-138552142D01*
X163952380Y-138456904D01*
X163952380Y-138171190D01*
X163904761Y-138075952D01*
X163857142Y-138028333D01*
X163761904Y-137980714D01*
X163571428Y-137980714D01*
X163476190Y-138028333D01*
X163000000Y-138647380D02*
X163000000Y-137980714D01*
X163000000Y-138075952D02*
X162952380Y-138028333D01*
X162857142Y-137980714D01*
X162714285Y-137980714D01*
X162619047Y-138028333D01*
X162571428Y-138123571D01*
X162571428Y-138647380D01*
X162571428Y-138123571D02*
X162523809Y-138028333D01*
X162428571Y-137980714D01*
X162285714Y-137980714D01*
X162190476Y-138028333D01*
X162142857Y-138123571D01*
X162142857Y-138647380D01*
X161238095Y-138647380D02*
X161238095Y-138123571D01*
X161285714Y-138028333D01*
X161380952Y-137980714D01*
X161571428Y-137980714D01*
X161666666Y-138028333D01*
X161238095Y-138599761D02*
X161333333Y-138647380D01*
X161571428Y-138647380D01*
X161666666Y-138599761D01*
X161714285Y-138504523D01*
X161714285Y-138409285D01*
X161666666Y-138314047D01*
X161571428Y-138266428D01*
X161333333Y-138266428D01*
X161238095Y-138218809D01*
X160761904Y-138647380D02*
X160761904Y-137980714D01*
X160761904Y-137647380D02*
X160809523Y-137695000D01*
X160761904Y-137742619D01*
X160714285Y-137695000D01*
X160761904Y-137647380D01*
X160761904Y-137742619D01*
X160142857Y-138647380D02*
X160238095Y-138599761D01*
X160285714Y-138504523D01*
X160285714Y-137647380D01*
X159761904Y-138552142D02*
X159714285Y-138599761D01*
X159761904Y-138647380D01*
X159809523Y-138599761D01*
X159761904Y-138552142D01*
X159761904Y-138647380D01*
X158857142Y-138599761D02*
X158952380Y-138647380D01*
X159142857Y-138647380D01*
X159238095Y-138599761D01*
X159285714Y-138552142D01*
X159333333Y-138456904D01*
X159333333Y-138171190D01*
X159285714Y-138075952D01*
X159238095Y-138028333D01*
X159142857Y-137980714D01*
X158952380Y-137980714D01*
X158857142Y-138028333D01*
X158285714Y-138647380D02*
X158380952Y-138599761D01*
X158428571Y-138552142D01*
X158476190Y-138456904D01*
X158476190Y-138171190D01*
X158428571Y-138075952D01*
X158380952Y-138028333D01*
X158285714Y-137980714D01*
X158142857Y-137980714D01*
X158047619Y-138028333D01*
X158000000Y-138075952D01*
X157952380Y-138171190D01*
X157952380Y-138456904D01*
X158000000Y-138552142D01*
X158047619Y-138599761D01*
X158142857Y-138647380D01*
X158285714Y-138647380D01*
X157523809Y-138647380D02*
X157523809Y-137980714D01*
X157523809Y-138075952D02*
X157476190Y-138028333D01*
X157380952Y-137980714D01*
X157238095Y-137980714D01*
X157142857Y-138028333D01*
X157095238Y-138123571D01*
X157095238Y-138647380D01*
X157095238Y-138123571D02*
X157047619Y-138028333D01*
X156952380Y-137980714D01*
X156809523Y-137980714D01*
X156714285Y-138028333D01*
X156666666Y-138123571D01*
X156666666Y-138647380D01*
X172357142Y-141867380D02*
X172357142Y-140867380D01*
X172357142Y-141343571D02*
X171785714Y-141343571D01*
X171785714Y-141867380D02*
X171785714Y-140867380D01*
X170880952Y-141200714D02*
X170880952Y-141867380D01*
X171309523Y-141200714D02*
X171309523Y-141724523D01*
X171261904Y-141819761D01*
X171166666Y-141867380D01*
X171023809Y-141867380D01*
X170928571Y-141819761D01*
X170880952Y-141772142D01*
X170404761Y-141200714D02*
X170404761Y-141867380D01*
X170404761Y-141295952D02*
X170357142Y-141248333D01*
X170261904Y-141200714D01*
X170119047Y-141200714D01*
X170023809Y-141248333D01*
X169976190Y-141343571D01*
X169976190Y-141867380D01*
X169642857Y-141200714D02*
X169261904Y-141200714D01*
X169500000Y-140867380D02*
X169500000Y-141724523D01*
X169452380Y-141819761D01*
X169357142Y-141867380D01*
X169261904Y-141867380D01*
X168547619Y-141819761D02*
X168642857Y-141867380D01*
X168833333Y-141867380D01*
X168928571Y-141819761D01*
X168976190Y-141724523D01*
X168976190Y-141343571D01*
X168928571Y-141248333D01*
X168833333Y-141200714D01*
X168642857Y-141200714D01*
X168547619Y-141248333D01*
X168500000Y-141343571D01*
X168500000Y-141438809D01*
X168976190Y-141534047D01*
X168071428Y-141867380D02*
X168071428Y-141200714D01*
X168071428Y-141391190D02*
X168023809Y-141295952D01*
X167976190Y-141248333D01*
X167880952Y-141200714D01*
X167785714Y-141200714D01*
X166690476Y-141867380D02*
X166690476Y-140867380D01*
X166452380Y-140867380D01*
X166309523Y-140915000D01*
X166214285Y-141010238D01*
X166166666Y-141105476D01*
X166119047Y-141295952D01*
X166119047Y-141438809D01*
X166166666Y-141629285D01*
X166214285Y-141724523D01*
X166309523Y-141819761D01*
X166452380Y-141867380D01*
X166690476Y-141867380D01*
X165261904Y-141867380D02*
X165261904Y-141343571D01*
X165309523Y-141248333D01*
X165404761Y-141200714D01*
X165595238Y-141200714D01*
X165690476Y-141248333D01*
X165261904Y-141819761D02*
X165357142Y-141867380D01*
X165595238Y-141867380D01*
X165690476Y-141819761D01*
X165738095Y-141724523D01*
X165738095Y-141629285D01*
X165690476Y-141534047D01*
X165595238Y-141486428D01*
X165357142Y-141486428D01*
X165261904Y-141438809D01*
X164642857Y-141867380D02*
X164738095Y-141819761D01*
X164785714Y-141724523D01*
X164785714Y-140867380D01*
X164309523Y-141819761D02*
X164214285Y-141867380D01*
X164023809Y-141867380D01*
X163928571Y-141819761D01*
X163880952Y-141724523D01*
X163880952Y-141676904D01*
X163928571Y-141581666D01*
X164023809Y-141534047D01*
X164166666Y-141534047D01*
X164261904Y-141486428D01*
X164309523Y-141391190D01*
X164309523Y-141343571D01*
X164261904Y-141248333D01*
X164166666Y-141200714D01*
X164023809Y-141200714D01*
X163928571Y-141248333D01*
X163452380Y-141867380D02*
X163452380Y-141200714D01*
X163452380Y-140867380D02*
X163500000Y-140915000D01*
X163452380Y-140962619D01*
X163404761Y-140915000D01*
X163452380Y-140867380D01*
X163452380Y-140962619D01*
X162976190Y-141200714D02*
X162976190Y-141867380D01*
X162976190Y-141295952D02*
X162928571Y-141248333D01*
X162833333Y-141200714D01*
X162690476Y-141200714D01*
X162595238Y-141248333D01*
X162547619Y-141343571D01*
X162547619Y-141867380D01*
X161642857Y-141200714D02*
X161642857Y-142010238D01*
X161690476Y-142105476D01*
X161738095Y-142153095D01*
X161833333Y-142200714D01*
X161976190Y-142200714D01*
X162071428Y-142153095D01*
X161642857Y-141819761D02*
X161738095Y-141867380D01*
X161928571Y-141867380D01*
X162023809Y-141819761D01*
X162071428Y-141772142D01*
X162119047Y-141676904D01*
X162119047Y-141391190D01*
X162071428Y-141295952D01*
X162023809Y-141248333D01*
X161928571Y-141200714D01*
X161738095Y-141200714D01*
X161642857Y-141248333D01*
X177238095Y-142810714D02*
X177238095Y-143620238D01*
X177285714Y-143715476D01*
X177333333Y-143763095D01*
X177428571Y-143810714D01*
X177571428Y-143810714D01*
X177666666Y-143763095D01*
X177238095Y-143429761D02*
X177333333Y-143477380D01*
X177523809Y-143477380D01*
X177619047Y-143429761D01*
X177666666Y-143382142D01*
X177714285Y-143286904D01*
X177714285Y-143001190D01*
X177666666Y-142905952D01*
X177619047Y-142858333D01*
X177523809Y-142810714D01*
X177333333Y-142810714D01*
X177238095Y-142858333D01*
X176619047Y-143477380D02*
X176714285Y-143429761D01*
X176761904Y-143382142D01*
X176809523Y-143286904D01*
X176809523Y-143001190D01*
X176761904Y-142905952D01*
X176714285Y-142858333D01*
X176619047Y-142810714D01*
X176476190Y-142810714D01*
X176380952Y-142858333D01*
X176333333Y-142905952D01*
X176285714Y-143001190D01*
X176285714Y-143286904D01*
X176333333Y-143382142D01*
X176380952Y-143429761D01*
X176476190Y-143477380D01*
X176619047Y-143477380D01*
X175428571Y-143477380D02*
X175428571Y-142477380D01*
X175428571Y-143429761D02*
X175523809Y-143477380D01*
X175714285Y-143477380D01*
X175809523Y-143429761D01*
X175857142Y-143382142D01*
X175904761Y-143286904D01*
X175904761Y-143001190D01*
X175857142Y-142905952D01*
X175809523Y-142858333D01*
X175714285Y-142810714D01*
X175523809Y-142810714D01*
X175428571Y-142858333D01*
X175095238Y-142810714D02*
X174714285Y-142810714D01*
X174952380Y-143477380D02*
X174952380Y-142620238D01*
X174904761Y-142525000D01*
X174809523Y-142477380D01*
X174714285Y-142477380D01*
X173952380Y-143477380D02*
X173952380Y-142953571D01*
X174000000Y-142858333D01*
X174095238Y-142810714D01*
X174285714Y-142810714D01*
X174380952Y-142858333D01*
X173952380Y-143429761D02*
X174047619Y-143477380D01*
X174285714Y-143477380D01*
X174380952Y-143429761D01*
X174428571Y-143334523D01*
X174428571Y-143239285D01*
X174380952Y-143144047D01*
X174285714Y-143096428D01*
X174047619Y-143096428D01*
X173952380Y-143048809D01*
X173619047Y-142810714D02*
X173238095Y-142810714D01*
X173476190Y-142477380D02*
X173476190Y-143334523D01*
X173428571Y-143429761D01*
X173333333Y-143477380D01*
X173238095Y-143477380D01*
X172904761Y-143477380D02*
X172904761Y-142477380D01*
X172476190Y-143477380D02*
X172476190Y-142953571D01*
X172523809Y-142858333D01*
X172619047Y-142810714D01*
X172761904Y-142810714D01*
X172857142Y-142858333D01*
X172904761Y-142905952D01*
X171619047Y-143429761D02*
X171714285Y-143477380D01*
X171904761Y-143477380D01*
X172000000Y-143429761D01*
X172047619Y-143334523D01*
X172047619Y-142953571D01*
X172000000Y-142858333D01*
X171904761Y-142810714D01*
X171714285Y-142810714D01*
X171619047Y-142858333D01*
X171571428Y-142953571D01*
X171571428Y-143048809D01*
X172047619Y-143144047D01*
X171142857Y-143477380D02*
X171142857Y-142810714D01*
X171142857Y-143001190D02*
X171095238Y-142905952D01*
X171047619Y-142858333D01*
X170952380Y-142810714D01*
X170857142Y-142810714D01*
X170523809Y-143477380D02*
X170523809Y-142477380D01*
X170095238Y-143477380D02*
X170095238Y-142953571D01*
X170142857Y-142858333D01*
X170238095Y-142810714D01*
X170380952Y-142810714D01*
X170476190Y-142858333D01*
X170523809Y-142905952D01*
X169190476Y-143477380D02*
X169190476Y-142953571D01*
X169238095Y-142858333D01*
X169333333Y-142810714D01*
X169523809Y-142810714D01*
X169619047Y-142858333D01*
X169190476Y-143429761D02*
X169285714Y-143477380D01*
X169523809Y-143477380D01*
X169619047Y-143429761D01*
X169666666Y-143334523D01*
X169666666Y-143239285D01*
X169619047Y-143144047D01*
X169523809Y-143096428D01*
X169285714Y-143096428D01*
X169190476Y-143048809D01*
X168285714Y-142810714D02*
X168285714Y-143477380D01*
X168714285Y-142810714D02*
X168714285Y-143334523D01*
X168666666Y-143429761D01*
X168571428Y-143477380D01*
X168428571Y-143477380D01*
X168333333Y-143429761D01*
X168285714Y-143382142D01*
X167809523Y-142810714D02*
X167809523Y-143477380D01*
X167809523Y-142905952D02*
X167761904Y-142858333D01*
X167666666Y-142810714D01*
X167523809Y-142810714D01*
X167428571Y-142858333D01*
X167380952Y-142953571D01*
X167380952Y-143477380D01*
X167047619Y-142810714D02*
X166666666Y-142810714D01*
X166904761Y-142477380D02*
X166904761Y-143334523D01*
X166857142Y-143429761D01*
X166761904Y-143477380D01*
X166666666Y-143477380D01*
X165952380Y-143429761D02*
X166047619Y-143477380D01*
X166238095Y-143477380D01*
X166333333Y-143429761D01*
X166380952Y-143334523D01*
X166380952Y-142953571D01*
X166333333Y-142858333D01*
X166238095Y-142810714D01*
X166047619Y-142810714D01*
X165952380Y-142858333D01*
X165904761Y-142953571D01*
X165904761Y-143048809D01*
X166380952Y-143144047D01*
X165476190Y-143477380D02*
X165476190Y-142810714D01*
X165476190Y-143001190D02*
X165428571Y-142905952D01*
X165380952Y-142858333D01*
X165285714Y-142810714D01*
X165190476Y-142810714D01*
X164238095Y-143001190D02*
X164285714Y-142953571D01*
X164380952Y-142905952D01*
X164476190Y-142905952D01*
X164571428Y-142953571D01*
X164619047Y-143001190D01*
X164666666Y-143096428D01*
X164666666Y-143191666D01*
X164619047Y-143286904D01*
X164571428Y-143334523D01*
X164476190Y-143382142D01*
X164380952Y-143382142D01*
X164285714Y-143334523D01*
X164238095Y-143286904D01*
X164238095Y-142905952D02*
X164238095Y-143286904D01*
X164190476Y-143334523D01*
X164142857Y-143334523D01*
X164047619Y-143286904D01*
X164000000Y-143191666D01*
X164000000Y-142953571D01*
X164095238Y-142810714D01*
X164238095Y-142715476D01*
X164428571Y-142667857D01*
X164619047Y-142715476D01*
X164761904Y-142810714D01*
X164857142Y-142953571D01*
X164904761Y-143144047D01*
X164857142Y-143334523D01*
X164761904Y-143477380D01*
X164619047Y-143572619D01*
X164428571Y-143620238D01*
X164238095Y-143572619D01*
X164095238Y-143477380D01*
X163142857Y-142810714D02*
X163142857Y-143620238D01*
X163190476Y-143715476D01*
X163238095Y-143763095D01*
X163333333Y-143810714D01*
X163476190Y-143810714D01*
X163571428Y-143763095D01*
X163142857Y-143429761D02*
X163238095Y-143477380D01*
X163428571Y-143477380D01*
X163523809Y-143429761D01*
X163571428Y-143382142D01*
X163619047Y-143286904D01*
X163619047Y-143001190D01*
X163571428Y-142905952D01*
X163523809Y-142858333D01*
X163428571Y-142810714D01*
X163238095Y-142810714D01*
X163142857Y-142858333D01*
X162666666Y-143477380D02*
X162666666Y-142810714D01*
X162666666Y-142905952D02*
X162619047Y-142858333D01*
X162523809Y-142810714D01*
X162380952Y-142810714D01*
X162285714Y-142858333D01*
X162238095Y-142953571D01*
X162238095Y-143477380D01*
X162238095Y-142953571D02*
X162190476Y-142858333D01*
X162095238Y-142810714D01*
X161952380Y-142810714D01*
X161857142Y-142858333D01*
X161809523Y-142953571D01*
X161809523Y-143477380D01*
X160904761Y-143477380D02*
X160904761Y-142953571D01*
X160952380Y-142858333D01*
X161047619Y-142810714D01*
X161238095Y-142810714D01*
X161333333Y-142858333D01*
X160904761Y-143429761D02*
X161000000Y-143477380D01*
X161238095Y-143477380D01*
X161333333Y-143429761D01*
X161380952Y-143334523D01*
X161380952Y-143239285D01*
X161333333Y-143144047D01*
X161238095Y-143096428D01*
X161000000Y-143096428D01*
X160904761Y-143048809D01*
X160428571Y-143477380D02*
X160428571Y-142810714D01*
X160428571Y-142477380D02*
X160476190Y-142525000D01*
X160428571Y-142572619D01*
X160380952Y-142525000D01*
X160428571Y-142477380D01*
X160428571Y-142572619D01*
X159809523Y-143477380D02*
X159904761Y-143429761D01*
X159952380Y-143334523D01*
X159952380Y-142477380D01*
X159428571Y-143382142D02*
X159380952Y-143429761D01*
X159428571Y-143477380D01*
X159476190Y-143429761D01*
X159428571Y-143382142D01*
X159428571Y-143477380D01*
X158523809Y-143429761D02*
X158619047Y-143477380D01*
X158809523Y-143477380D01*
X158904761Y-143429761D01*
X158952380Y-143382142D01*
X159000000Y-143286904D01*
X159000000Y-143001190D01*
X158952380Y-142905952D01*
X158904761Y-142858333D01*
X158809523Y-142810714D01*
X158619047Y-142810714D01*
X158523809Y-142858333D01*
X157952380Y-143477380D02*
X158047619Y-143429761D01*
X158095238Y-143382142D01*
X158142857Y-143286904D01*
X158142857Y-143001190D01*
X158095238Y-142905952D01*
X158047619Y-142858333D01*
X157952380Y-142810714D01*
X157809523Y-142810714D01*
X157714285Y-142858333D01*
X157666666Y-142905952D01*
X157619047Y-143001190D01*
X157619047Y-143286904D01*
X157666666Y-143382142D01*
X157714285Y-143429761D01*
X157809523Y-143477380D01*
X157952380Y-143477380D01*
X157190476Y-143477380D02*
X157190476Y-142810714D01*
X157190476Y-142905952D02*
X157142857Y-142858333D01*
X157047619Y-142810714D01*
X156904761Y-142810714D01*
X156809523Y-142858333D01*
X156761904Y-142953571D01*
X156761904Y-143477380D01*
X156761904Y-142953571D02*
X156714285Y-142858333D01*
X156619047Y-142810714D01*
X156476190Y-142810714D01*
X156380952Y-142858333D01*
X156333333Y-142953571D01*
X156333333Y-143477380D01*
X176928571Y-144420714D02*
X176928571Y-145230238D01*
X176976190Y-145325476D01*
X177023809Y-145373095D01*
X177119047Y-145420714D01*
X177261904Y-145420714D01*
X177357142Y-145373095D01*
X176928571Y-145039761D02*
X177023809Y-145087380D01*
X177214285Y-145087380D01*
X177309523Y-145039761D01*
X177357142Y-144992142D01*
X177404761Y-144896904D01*
X177404761Y-144611190D01*
X177357142Y-144515952D01*
X177309523Y-144468333D01*
X177214285Y-144420714D01*
X177023809Y-144420714D01*
X176928571Y-144468333D01*
X176452380Y-145087380D02*
X176452380Y-144420714D01*
X176452380Y-144087380D02*
X176500000Y-144135000D01*
X176452380Y-144182619D01*
X176404761Y-144135000D01*
X176452380Y-144087380D01*
X176452380Y-144182619D01*
X176119047Y-144420714D02*
X175738095Y-144420714D01*
X175976190Y-144087380D02*
X175976190Y-144944523D01*
X175928571Y-145039761D01*
X175833333Y-145087380D01*
X175738095Y-145087380D01*
X175404761Y-145087380D02*
X175404761Y-144087380D01*
X174976190Y-145087380D02*
X174976190Y-144563571D01*
X175023809Y-144468333D01*
X175119047Y-144420714D01*
X175261904Y-144420714D01*
X175357142Y-144468333D01*
X175404761Y-144515952D01*
X174071428Y-144420714D02*
X174071428Y-145087380D01*
X174500000Y-144420714D02*
X174500000Y-144944523D01*
X174452380Y-145039761D01*
X174357142Y-145087380D01*
X174214285Y-145087380D01*
X174119047Y-145039761D01*
X174071428Y-144992142D01*
X173595238Y-145087380D02*
X173595238Y-144087380D01*
X173595238Y-144468333D02*
X173500000Y-144420714D01*
X173309523Y-144420714D01*
X173214285Y-144468333D01*
X173166666Y-144515952D01*
X173119047Y-144611190D01*
X173119047Y-144896904D01*
X173166666Y-144992142D01*
X173214285Y-145039761D01*
X173309523Y-145087380D01*
X173500000Y-145087380D01*
X173595238Y-145039761D01*
X172690476Y-144992142D02*
X172642857Y-145039761D01*
X172690476Y-145087380D01*
X172738095Y-145039761D01*
X172690476Y-144992142D01*
X172690476Y-145087380D01*
X171785714Y-145039761D02*
X171880952Y-145087380D01*
X172071428Y-145087380D01*
X172166666Y-145039761D01*
X172214285Y-144992142D01*
X172261904Y-144896904D01*
X172261904Y-144611190D01*
X172214285Y-144515952D01*
X172166666Y-144468333D01*
X172071428Y-144420714D01*
X171880952Y-144420714D01*
X171785714Y-144468333D01*
X171214285Y-145087380D02*
X171309523Y-145039761D01*
X171357142Y-144992142D01*
X171404761Y-144896904D01*
X171404761Y-144611190D01*
X171357142Y-144515952D01*
X171309523Y-144468333D01*
X171214285Y-144420714D01*
X171071428Y-144420714D01*
X170976190Y-144468333D01*
X170928571Y-144515952D01*
X170880952Y-144611190D01*
X170880952Y-144896904D01*
X170928571Y-144992142D01*
X170976190Y-145039761D01*
X171071428Y-145087380D01*
X171214285Y-145087380D01*
X170452380Y-145087380D02*
X170452380Y-144420714D01*
X170452380Y-144515952D02*
X170404761Y-144468333D01*
X170309523Y-144420714D01*
X170166666Y-144420714D01*
X170071428Y-144468333D01*
X170023809Y-144563571D01*
X170023809Y-145087380D01*
X170023809Y-144563571D02*
X169976190Y-144468333D01*
X169880952Y-144420714D01*
X169738095Y-144420714D01*
X169642857Y-144468333D01*
X169595238Y-144563571D01*
X169595238Y-145087380D01*
X168404761Y-144039761D02*
X169261904Y-145325476D01*
X167642857Y-144420714D02*
X167642857Y-145230238D01*
X167690476Y-145325476D01*
X167738095Y-145373095D01*
X167833333Y-145420714D01*
X167976190Y-145420714D01*
X168071428Y-145373095D01*
X167642857Y-145039761D02*
X167738095Y-145087380D01*
X167928571Y-145087380D01*
X168023809Y-145039761D01*
X168071428Y-144992142D01*
X168119047Y-144896904D01*
X168119047Y-144611190D01*
X168071428Y-144515952D01*
X168023809Y-144468333D01*
X167928571Y-144420714D01*
X167738095Y-144420714D01*
X167642857Y-144468333D01*
X167023809Y-145087380D02*
X167119047Y-145039761D01*
X167166666Y-144992142D01*
X167214285Y-144896904D01*
X167214285Y-144611190D01*
X167166666Y-144515952D01*
X167119047Y-144468333D01*
X167023809Y-144420714D01*
X166880952Y-144420714D01*
X166785714Y-144468333D01*
X166738095Y-144515952D01*
X166690476Y-144611190D01*
X166690476Y-144896904D01*
X166738095Y-144992142D01*
X166785714Y-145039761D01*
X166880952Y-145087380D01*
X167023809Y-145087380D01*
X165833333Y-145087380D02*
X165833333Y-144087380D01*
X165833333Y-145039761D02*
X165928571Y-145087380D01*
X166119047Y-145087380D01*
X166214285Y-145039761D01*
X166261904Y-144992142D01*
X166309523Y-144896904D01*
X166309523Y-144611190D01*
X166261904Y-144515952D01*
X166214285Y-144468333D01*
X166119047Y-144420714D01*
X165928571Y-144420714D01*
X165833333Y-144468333D01*
X165500000Y-144420714D02*
X165119047Y-144420714D01*
X165357142Y-145087380D02*
X165357142Y-144230238D01*
X165309523Y-144135000D01*
X165214285Y-144087380D01*
X165119047Y-144087380D01*
X164357142Y-145087380D02*
X164357142Y-144563571D01*
X164404761Y-144468333D01*
X164500000Y-144420714D01*
X164690476Y-144420714D01*
X164785714Y-144468333D01*
X164357142Y-145039761D02*
X164452380Y-145087380D01*
X164690476Y-145087380D01*
X164785714Y-145039761D01*
X164833333Y-144944523D01*
X164833333Y-144849285D01*
X164785714Y-144754047D01*
X164690476Y-144706428D01*
X164452380Y-144706428D01*
X164357142Y-144658809D01*
X164023809Y-144420714D02*
X163642857Y-144420714D01*
X163880952Y-144087380D02*
X163880952Y-144944523D01*
X163833333Y-145039761D01*
X163738095Y-145087380D01*
X163642857Y-145087380D01*
X163309523Y-145087380D02*
X163309523Y-144087380D01*
X162880952Y-145087380D02*
X162880952Y-144563571D01*
X162928571Y-144468333D01*
X163023809Y-144420714D01*
X163166666Y-144420714D01*
X163261904Y-144468333D01*
X163309523Y-144515952D01*
X162023809Y-145039761D02*
X162119047Y-145087380D01*
X162309523Y-145087380D01*
X162404761Y-145039761D01*
X162452380Y-144944523D01*
X162452380Y-144563571D01*
X162404761Y-144468333D01*
X162309523Y-144420714D01*
X162119047Y-144420714D01*
X162023809Y-144468333D01*
X161976190Y-144563571D01*
X161976190Y-144658809D01*
X162452380Y-144754047D01*
X161547619Y-145087380D02*
X161547619Y-144420714D01*
X161547619Y-144611190D02*
X161500000Y-144515952D01*
X161452380Y-144468333D01*
X161357142Y-144420714D01*
X161261904Y-144420714D01*
X160928571Y-145087380D02*
X160928571Y-144087380D01*
X160500000Y-145087380D02*
X160500000Y-144563571D01*
X160547619Y-144468333D01*
X160642857Y-144420714D01*
X160785714Y-144420714D01*
X160880952Y-144468333D01*
X160928571Y-144515952D01*
X159595238Y-144420714D02*
X159595238Y-145087380D01*
X160023809Y-144420714D02*
X160023809Y-144944523D01*
X159976190Y-145039761D01*
X159880952Y-145087380D01*
X159738095Y-145087380D01*
X159642857Y-145039761D01*
X159595238Y-144992142D01*
X159119047Y-144420714D02*
X159119047Y-145087380D01*
X159119047Y-144515952D02*
X159071428Y-144468333D01*
X158976190Y-144420714D01*
X158833333Y-144420714D01*
X158738095Y-144468333D01*
X158690476Y-144563571D01*
X158690476Y-145087380D01*
X158357142Y-144420714D02*
X157976190Y-144420714D01*
X158214285Y-144087380D02*
X158214285Y-144944523D01*
X158166666Y-145039761D01*
X158071428Y-145087380D01*
X157976190Y-145087380D01*
X157261904Y-145039761D02*
X157357142Y-145087380D01*
X157547619Y-145087380D01*
X157642857Y-145039761D01*
X157690476Y-144944523D01*
X157690476Y-144563571D01*
X157642857Y-144468333D01*
X157547619Y-144420714D01*
X157357142Y-144420714D01*
X157261904Y-144468333D01*
X157214285Y-144563571D01*
X157214285Y-144658809D01*
X157690476Y-144754047D01*
X156785714Y-145087380D02*
X156785714Y-144420714D01*
X156785714Y-144611190D02*
X156738095Y-144515952D01*
X156690476Y-144468333D01*
X156595238Y-144420714D01*
X156500000Y-144420714D01*
%TO.C,LS1*%
X123852380Y-131357142D02*
X123852380Y-130880952D01*
X122852380Y-130880952D01*
X123804761Y-131642857D02*
X123852380Y-131785714D01*
X123852380Y-132023809D01*
X123804761Y-132119047D01*
X123757142Y-132166666D01*
X123661904Y-132214285D01*
X123566666Y-132214285D01*
X123471428Y-132166666D01*
X123423809Y-132119047D01*
X123376190Y-132023809D01*
X123328571Y-131833333D01*
X123280952Y-131738095D01*
X123233333Y-131690476D01*
X123138095Y-131642857D01*
X123042857Y-131642857D01*
X122947619Y-131690476D01*
X122900000Y-131738095D01*
X122852380Y-131833333D01*
X122852380Y-132071428D01*
X122900000Y-132214285D01*
X123852380Y-133166666D02*
X123852380Y-132595238D01*
X123852380Y-132880952D02*
X122852380Y-132880952D01*
X122995238Y-132785714D01*
X123090476Y-132690476D01*
X123138095Y-132595238D01*
%TO.C,J1*%
X121772380Y-102666666D02*
X122486666Y-102666666D01*
X122629523Y-102619047D01*
X122724761Y-102523809D01*
X122772380Y-102380952D01*
X122772380Y-102285714D01*
X122772380Y-103666666D02*
X122772380Y-103095238D01*
X122772380Y-103380952D02*
X121772380Y-103380952D01*
X121915238Y-103285714D01*
X122010476Y-103190476D01*
X122058095Y-103095238D01*
%TO.C,R7*%
X159172380Y-122833333D02*
X158696190Y-122500000D01*
X159172380Y-122261904D02*
X158172380Y-122261904D01*
X158172380Y-122642857D01*
X158220000Y-122738095D01*
X158267619Y-122785714D01*
X158362857Y-122833333D01*
X158505714Y-122833333D01*
X158600952Y-122785714D01*
X158648571Y-122738095D01*
X158696190Y-122642857D01*
X158696190Y-122261904D01*
X158172380Y-123166666D02*
X158172380Y-123833333D01*
X159172380Y-123404761D01*
%TO.C,R6*%
X159172380Y-116833333D02*
X158696190Y-116500000D01*
X159172380Y-116261904D02*
X158172380Y-116261904D01*
X158172380Y-116642857D01*
X158220000Y-116738095D01*
X158267619Y-116785714D01*
X158362857Y-116833333D01*
X158505714Y-116833333D01*
X158600952Y-116785714D01*
X158648571Y-116738095D01*
X158696190Y-116642857D01*
X158696190Y-116261904D01*
X158172380Y-117690476D02*
X158172380Y-117500000D01*
X158220000Y-117404761D01*
X158267619Y-117357142D01*
X158410476Y-117261904D01*
X158600952Y-117214285D01*
X158981904Y-117214285D01*
X159077142Y-117261904D01*
X159124761Y-117309523D01*
X159172380Y-117404761D01*
X159172380Y-117595238D01*
X159124761Y-117690476D01*
X159077142Y-117738095D01*
X158981904Y-117785714D01*
X158743809Y-117785714D01*
X158648571Y-117738095D01*
X158600952Y-117690476D01*
X158553333Y-117595238D01*
X158553333Y-117404761D01*
X158600952Y-117309523D01*
X158648571Y-117261904D01*
X158743809Y-117214285D01*
%TO.C,R5*%
X141172380Y-121833333D02*
X140696190Y-121500000D01*
X141172380Y-121261904D02*
X140172380Y-121261904D01*
X140172380Y-121642857D01*
X140220000Y-121738095D01*
X140267619Y-121785714D01*
X140362857Y-121833333D01*
X140505714Y-121833333D01*
X140600952Y-121785714D01*
X140648571Y-121738095D01*
X140696190Y-121642857D01*
X140696190Y-121261904D01*
X140172380Y-122738095D02*
X140172380Y-122261904D01*
X140648571Y-122214285D01*
X140600952Y-122261904D01*
X140553333Y-122357142D01*
X140553333Y-122595238D01*
X140600952Y-122690476D01*
X140648571Y-122738095D01*
X140743809Y-122785714D01*
X140981904Y-122785714D01*
X141077142Y-122738095D01*
X141124761Y-122690476D01*
X141172380Y-122595238D01*
X141172380Y-122357142D01*
X141124761Y-122261904D01*
X141077142Y-122214285D01*
%TO.C,R1*%
X142166666Y-129172380D02*
X142500000Y-128696190D01*
X142738095Y-129172380D02*
X142738095Y-128172380D01*
X142357142Y-128172380D01*
X142261904Y-128220000D01*
X142214285Y-128267619D01*
X142166666Y-128362857D01*
X142166666Y-128505714D01*
X142214285Y-128600952D01*
X142261904Y-128648571D01*
X142357142Y-128696190D01*
X142738095Y-128696190D01*
X141214285Y-129172380D02*
X141785714Y-129172380D01*
X141500000Y-129172380D02*
X141500000Y-128172380D01*
X141595238Y-128315238D01*
X141690476Y-128410476D01*
X141785714Y-128458095D01*
%TO.C,Q1*%
X156095238Y-126147619D02*
X156190476Y-126100000D01*
X156285714Y-126004761D01*
X156428571Y-125861904D01*
X156523809Y-125814285D01*
X156619047Y-125814285D01*
X156571428Y-126052380D02*
X156666666Y-126004761D01*
X156761904Y-125909523D01*
X156809523Y-125719047D01*
X156809523Y-125385714D01*
X156761904Y-125195238D01*
X156666666Y-125100000D01*
X156571428Y-125052380D01*
X156380952Y-125052380D01*
X156285714Y-125100000D01*
X156190476Y-125195238D01*
X156142857Y-125385714D01*
X156142857Y-125719047D01*
X156190476Y-125909523D01*
X156285714Y-126004761D01*
X156380952Y-126052380D01*
X156571428Y-126052380D01*
X155190476Y-126052380D02*
X155761904Y-126052380D01*
X155476190Y-126052380D02*
X155476190Y-125052380D01*
X155571428Y-125195238D01*
X155666666Y-125290476D01*
X155761904Y-125338095D01*
%TO.C,X1*%
X137925016Y-137888204D02*
X137258350Y-138888204D01*
X137258350Y-137888204D02*
X137925016Y-138888204D01*
X136353588Y-138888204D02*
X136925016Y-138888204D01*
X136639302Y-138888204D02*
X136639302Y-137888204D01*
X136734540Y-138031062D01*
X136829778Y-138126300D01*
X136925016Y-138173919D01*
X138026207Y-141787395D02*
X137919064Y-141823109D01*
X137740493Y-141823109D01*
X137669064Y-141787395D01*
X137633350Y-141751681D01*
X137597635Y-141680252D01*
X137597635Y-141608824D01*
X137633350Y-141537395D01*
X137669064Y-141501681D01*
X137740493Y-141465966D01*
X137883350Y-141430252D01*
X137954778Y-141394538D01*
X137990493Y-141358824D01*
X138026207Y-141287395D01*
X138026207Y-141215966D01*
X137990493Y-141144538D01*
X137954778Y-141108824D01*
X137883350Y-141073109D01*
X137704778Y-141073109D01*
X137597635Y-141108824D01*
X137276207Y-141823109D02*
X137276207Y-141073109D01*
X137097635Y-141073109D01*
X136990493Y-141108824D01*
X136919064Y-141180252D01*
X136883350Y-141251681D01*
X136847635Y-141394538D01*
X136847635Y-141501681D01*
X136883350Y-141644538D01*
X136919064Y-141715966D01*
X136990493Y-141787395D01*
X137097635Y-141823109D01*
X137276207Y-141823109D01*
X136561921Y-141608824D02*
X136204778Y-141608824D01*
X136633350Y-141823109D02*
X136383350Y-141073109D01*
X136133350Y-141823109D01*
X142159635Y-146950824D02*
X142231064Y-146915109D01*
X142338207Y-146915109D01*
X142445350Y-146950824D01*
X142516778Y-147022252D01*
X142552493Y-147093681D01*
X142588207Y-147236538D01*
X142588207Y-147343681D01*
X142552493Y-147486538D01*
X142516778Y-147557966D01*
X142445350Y-147629395D01*
X142338207Y-147665109D01*
X142266778Y-147665109D01*
X142159635Y-147629395D01*
X142123921Y-147593681D01*
X142123921Y-147343681D01*
X142266778Y-147343681D01*
X141802493Y-147665109D02*
X141802493Y-146915109D01*
X141516778Y-146915109D01*
X141445350Y-146950824D01*
X141409635Y-146986538D01*
X141373921Y-147057966D01*
X141373921Y-147165109D01*
X141409635Y-147236538D01*
X141445350Y-147272252D01*
X141516778Y-147307966D01*
X141802493Y-147307966D01*
X141052493Y-147665109D02*
X141052493Y-146915109D01*
X140552493Y-146915109D02*
X140409635Y-146915109D01*
X140338207Y-146950824D01*
X140266778Y-147022252D01*
X140231064Y-147165109D01*
X140231064Y-147415109D01*
X140266778Y-147557966D01*
X140338207Y-147629395D01*
X140409635Y-147665109D01*
X140552493Y-147665109D01*
X140623921Y-147629395D01*
X140695350Y-147557966D01*
X140731064Y-147415109D01*
X140731064Y-147165109D01*
X140695350Y-147022252D01*
X140623921Y-146950824D01*
X140552493Y-146915109D01*
X139945350Y-146986538D02*
X139909635Y-146950824D01*
X139838207Y-146915109D01*
X139659635Y-146915109D01*
X139588207Y-146950824D01*
X139552493Y-146986538D01*
X139516778Y-147057966D01*
X139516778Y-147129395D01*
X139552493Y-147236538D01*
X139981064Y-147665109D01*
X139516778Y-147665109D01*
X142159635Y-141108824D02*
X142231064Y-141073109D01*
X142338207Y-141073109D01*
X142445350Y-141108824D01*
X142516778Y-141180252D01*
X142552493Y-141251681D01*
X142588207Y-141394538D01*
X142588207Y-141501681D01*
X142552493Y-141644538D01*
X142516778Y-141715966D01*
X142445350Y-141787395D01*
X142338207Y-141823109D01*
X142266778Y-141823109D01*
X142159635Y-141787395D01*
X142123921Y-141751681D01*
X142123921Y-141501681D01*
X142266778Y-141501681D01*
X141802493Y-141823109D02*
X141802493Y-141073109D01*
X141516778Y-141073109D01*
X141445350Y-141108824D01*
X141409635Y-141144538D01*
X141373921Y-141215966D01*
X141373921Y-141323109D01*
X141409635Y-141394538D01*
X141445350Y-141430252D01*
X141516778Y-141465966D01*
X141802493Y-141465966D01*
X141052493Y-141823109D02*
X141052493Y-141073109D01*
X140552493Y-141073109D02*
X140409635Y-141073109D01*
X140338207Y-141108824D01*
X140266778Y-141180252D01*
X140231064Y-141323109D01*
X140231064Y-141573109D01*
X140266778Y-141715966D01*
X140338207Y-141787395D01*
X140409635Y-141823109D01*
X140552493Y-141823109D01*
X140623921Y-141787395D01*
X140695350Y-141715966D01*
X140731064Y-141573109D01*
X140731064Y-141323109D01*
X140695350Y-141180252D01*
X140623921Y-141108824D01*
X140552493Y-141073109D01*
X139516778Y-141823109D02*
X139945350Y-141823109D01*
X139731064Y-141823109D02*
X139731064Y-141073109D01*
X139802493Y-141180252D01*
X139873921Y-141251681D01*
X139945350Y-141287395D01*
X135575493Y-141073109D02*
X135325493Y-141823109D01*
X135075493Y-141073109D01*
X134396921Y-141751681D02*
X134432635Y-141787395D01*
X134539778Y-141823109D01*
X134611207Y-141823109D01*
X134718350Y-141787395D01*
X134789778Y-141715966D01*
X134825493Y-141644538D01*
X134861207Y-141501681D01*
X134861207Y-141394538D01*
X134825493Y-141251681D01*
X134789778Y-141180252D01*
X134718350Y-141108824D01*
X134611207Y-141073109D01*
X134539778Y-141073109D01*
X134432635Y-141108824D01*
X134396921Y-141144538D01*
X133646921Y-141751681D02*
X133682635Y-141787395D01*
X133789778Y-141823109D01*
X133861207Y-141823109D01*
X133968350Y-141787395D01*
X134039778Y-141715966D01*
X134075493Y-141644538D01*
X134111207Y-141501681D01*
X134111207Y-141394538D01*
X134075493Y-141251681D01*
X134039778Y-141180252D01*
X133968350Y-141108824D01*
X133861207Y-141073109D01*
X133789778Y-141073109D01*
X133682635Y-141108824D01*
X133646921Y-141144538D01*
X135146921Y-146950824D02*
X135218350Y-146915109D01*
X135325493Y-146915109D01*
X135432635Y-146950824D01*
X135504064Y-147022252D01*
X135539778Y-147093681D01*
X135575493Y-147236538D01*
X135575493Y-147343681D01*
X135539778Y-147486538D01*
X135504064Y-147557966D01*
X135432635Y-147629395D01*
X135325493Y-147665109D01*
X135254064Y-147665109D01*
X135146921Y-147629395D01*
X135111207Y-147593681D01*
X135111207Y-147343681D01*
X135254064Y-147343681D01*
X134789778Y-147665109D02*
X134789778Y-146915109D01*
X134361207Y-147665109D01*
X134361207Y-146915109D01*
X134004064Y-147665109D02*
X134004064Y-146915109D01*
X133825493Y-146915109D01*
X133718350Y-146950824D01*
X133646921Y-147022252D01*
X133611207Y-147093681D01*
X133575493Y-147236538D01*
X133575493Y-147343681D01*
X133611207Y-147486538D01*
X133646921Y-147557966D01*
X133718350Y-147629395D01*
X133825493Y-147665109D01*
X134004064Y-147665109D01*
X138008350Y-147629395D02*
X137901207Y-147665109D01*
X137722635Y-147665109D01*
X137651207Y-147629395D01*
X137615493Y-147593681D01*
X137579778Y-147522252D01*
X137579778Y-147450824D01*
X137615493Y-147379395D01*
X137651207Y-147343681D01*
X137722635Y-147307966D01*
X137865493Y-147272252D01*
X137936921Y-147236538D01*
X137972635Y-147200824D01*
X138008350Y-147129395D01*
X138008350Y-147057966D01*
X137972635Y-146986538D01*
X137936921Y-146950824D01*
X137865493Y-146915109D01*
X137686921Y-146915109D01*
X137579778Y-146950824D01*
X136829778Y-147593681D02*
X136865493Y-147629395D01*
X136972635Y-147665109D01*
X137044064Y-147665109D01*
X137151207Y-147629395D01*
X137222635Y-147557966D01*
X137258350Y-147486538D01*
X137294064Y-147343681D01*
X137294064Y-147236538D01*
X137258350Y-147093681D01*
X137222635Y-147022252D01*
X137151207Y-146950824D01*
X137044064Y-146915109D01*
X136972635Y-146915109D01*
X136865493Y-146950824D01*
X136829778Y-146986538D01*
X136151207Y-147665109D02*
X136508350Y-147665109D01*
X136508350Y-146915109D01*
%TO.C,U3*%
X173244917Y-126285363D02*
X174054441Y-126285363D01*
X174149679Y-126332982D01*
X174197298Y-126380601D01*
X174244917Y-126475839D01*
X174244917Y-126666315D01*
X174197298Y-126761553D01*
X174149679Y-126809172D01*
X174054441Y-126856791D01*
X173244917Y-126856791D01*
X173244917Y-127237744D02*
X173244917Y-127856791D01*
X173625870Y-127523458D01*
X173625870Y-127666315D01*
X173673489Y-127761553D01*
X173721108Y-127809172D01*
X173816346Y-127856791D01*
X174054441Y-127856791D01*
X174149679Y-127809172D01*
X174197298Y-127761553D01*
X174244917Y-127666315D01*
X174244917Y-127380601D01*
X174197298Y-127285363D01*
X174149679Y-127237744D01*
%TO.C,R3*%
X150732380Y-133833333D02*
X150256190Y-133500000D01*
X150732380Y-133261904D02*
X149732380Y-133261904D01*
X149732380Y-133642857D01*
X149780000Y-133738095D01*
X149827619Y-133785714D01*
X149922857Y-133833333D01*
X150065714Y-133833333D01*
X150160952Y-133785714D01*
X150208571Y-133738095D01*
X150256190Y-133642857D01*
X150256190Y-133261904D01*
X149732380Y-134166666D02*
X149732380Y-134785714D01*
X150113333Y-134452380D01*
X150113333Y-134595238D01*
X150160952Y-134690476D01*
X150208571Y-134738095D01*
X150303809Y-134785714D01*
X150541904Y-134785714D01*
X150637142Y-134738095D01*
X150684761Y-134690476D01*
X150732380Y-134595238D01*
X150732380Y-134309523D01*
X150684761Y-134214285D01*
X150637142Y-134166666D01*
%TO.C,R2*%
X118172380Y-78833333D02*
X117696190Y-78500000D01*
X118172380Y-78261904D02*
X117172380Y-78261904D01*
X117172380Y-78642857D01*
X117220000Y-78738095D01*
X117267619Y-78785714D01*
X117362857Y-78833333D01*
X117505714Y-78833333D01*
X117600952Y-78785714D01*
X117648571Y-78738095D01*
X117696190Y-78642857D01*
X117696190Y-78261904D01*
X117267619Y-79214285D02*
X117220000Y-79261904D01*
X117172380Y-79357142D01*
X117172380Y-79595238D01*
X117220000Y-79690476D01*
X117267619Y-79738095D01*
X117362857Y-79785714D01*
X117458095Y-79785714D01*
X117600952Y-79738095D01*
X118172380Y-79166666D01*
X118172380Y-79785714D01*
%TO.C,U1*%
X144964540Y-123941689D02*
X145774064Y-123941689D01*
X145869302Y-123989308D01*
X145916921Y-124036927D01*
X145964540Y-124132165D01*
X145964540Y-124322641D01*
X145916921Y-124417879D01*
X145869302Y-124465498D01*
X145774064Y-124513117D01*
X144964540Y-124513117D01*
X145964540Y-125513117D02*
X145964540Y-124941689D01*
X145964540Y-125227403D02*
X144964540Y-125227403D01*
X145107398Y-125132165D01*
X145202636Y-125036927D01*
X145250255Y-124941689D01*
%TO.C,R4*%
X125172380Y-81833333D02*
X124696190Y-81500000D01*
X125172380Y-81261904D02*
X124172380Y-81261904D01*
X124172380Y-81642857D01*
X124220000Y-81738095D01*
X124267619Y-81785714D01*
X124362857Y-81833333D01*
X124505714Y-81833333D01*
X124600952Y-81785714D01*
X124648571Y-81738095D01*
X124696190Y-81642857D01*
X124696190Y-81261904D01*
X124505714Y-82690476D02*
X125172380Y-82690476D01*
X124124761Y-82452380D02*
X124839047Y-82214285D01*
X124839047Y-82833333D01*
%TO.C,G\u002A\u002A\u002A*%
G36*
X152235469Y-97633917D02*
G01*
X152352019Y-97899166D01*
X152587561Y-98438198D01*
X152793466Y-98913799D01*
X152968934Y-99324056D01*
X153113165Y-99667055D01*
X153225358Y-99940881D01*
X153304713Y-100143619D01*
X153350430Y-100273356D01*
X153361709Y-100328177D01*
X153334056Y-100398212D01*
X153271787Y-100545968D01*
X153185905Y-100743364D01*
X153080876Y-100980642D01*
X152961170Y-101248049D01*
X152831253Y-101535829D01*
X152695593Y-101834227D01*
X152558659Y-102133487D01*
X152424917Y-102423855D01*
X152298837Y-102695575D01*
X152184884Y-102938892D01*
X152087529Y-103144051D01*
X152011237Y-103301296D01*
X151960478Y-103400873D01*
X151939718Y-103433026D01*
X151927324Y-103408627D01*
X151883095Y-103312731D01*
X151809846Y-103150269D01*
X151710359Y-102927517D01*
X151587413Y-102650747D01*
X151443788Y-102326233D01*
X151282264Y-101960248D01*
X151105622Y-101559067D01*
X150916640Y-101128961D01*
X150718099Y-100676206D01*
X150589040Y-100381641D01*
X150391239Y-99930293D01*
X150202531Y-99499826D01*
X150026018Y-99097309D01*
X149864800Y-98729811D01*
X149721981Y-98404398D01*
X149600661Y-98128140D01*
X149503942Y-97908105D01*
X149434926Y-97751361D01*
X149396714Y-97664975D01*
X149269549Y-97379701D01*
X147970716Y-97379701D01*
X147970716Y-105029285D01*
X145350416Y-105029285D01*
X145350416Y-97379701D01*
X143215430Y-97379701D01*
X142795843Y-96418220D01*
X142717664Y-96239090D01*
X142598663Y-95966484D01*
X142489241Y-95715894D01*
X142395455Y-95501183D01*
X142323360Y-95336216D01*
X142279010Y-95234859D01*
X142181765Y-95012979D01*
X151082019Y-95012979D01*
X152235469Y-97633917D01*
G37*
G36*
X163819301Y-105029285D02*
G01*
X160332613Y-105029285D01*
X160033952Y-105029169D01*
X159512325Y-105028393D01*
X159019161Y-105026937D01*
X158560687Y-105024857D01*
X158143135Y-105022210D01*
X157772732Y-105019052D01*
X157455708Y-105015440D01*
X157198293Y-105011431D01*
X157006716Y-105007082D01*
X156887206Y-105002448D01*
X156845991Y-104997587D01*
X156847432Y-104991906D01*
X156872952Y-104925855D01*
X156927121Y-104795233D01*
X157005723Y-104609929D01*
X157104543Y-104379828D01*
X157219366Y-104114820D01*
X157345975Y-103824792D01*
X157845892Y-102683694D01*
X159543578Y-102672649D01*
X161241265Y-102661604D01*
X161241265Y-95012979D01*
X163819301Y-95012979D01*
X163819301Y-105029285D01*
G37*
D11*
%TO.C,LS1*%
X129600000Y-130670000D02*
X129600000Y-133330000D01*
X124400000Y-130670000D02*
X124400000Y-133330000D01*
X129030000Y-133330000D02*
X129600000Y-133330000D01*
X124400000Y-133330000D02*
X127510000Y-133330000D01*
X124970000Y-130670000D02*
X124970000Y-129150000D01*
X124400000Y-130670000D02*
X124970000Y-130670000D01*
X126490000Y-130670000D02*
X129600000Y-130670000D01*
%TO.C,J1*%
X123890000Y-101670000D02*
X123890000Y-100150000D01*
X135570000Y-101670000D02*
X138680000Y-101670000D01*
X123320000Y-101670000D02*
X123320000Y-104330000D01*
X125410000Y-101670000D02*
X128970000Y-101670000D01*
X123320000Y-104330000D02*
X126430000Y-104330000D01*
X133030000Y-104330000D02*
X136590000Y-104330000D01*
X127950000Y-104330000D02*
X131510000Y-104330000D01*
X138110000Y-104330000D02*
X138680000Y-104330000D01*
X138680000Y-101670000D02*
X138680000Y-104330000D01*
X123320000Y-101670000D02*
X123890000Y-101670000D01*
X130490000Y-101670000D02*
X134050000Y-101670000D01*
%TO.C,R7*%
X162355000Y-122276263D02*
X162355000Y-123723737D01*
X159645000Y-122276263D02*
X159645000Y-123723737D01*
%TO.C,R6*%
X162355000Y-116276263D02*
X162355000Y-117723737D01*
X159645000Y-116276263D02*
X159645000Y-117723737D01*
%TO.C,R5*%
X144355000Y-121276263D02*
X144355000Y-122723737D01*
X141645000Y-121276263D02*
X141645000Y-122723737D01*
%TO.C,R1*%
X142723737Y-132355000D02*
X141276263Y-132355000D01*
X142723737Y-129645000D02*
X141276263Y-129645000D01*
%TO.C,Q1*%
X156000000Y-126440000D02*
X155350000Y-126440000D01*
X156000000Y-129560000D02*
X155350000Y-129560000D01*
X156000000Y-126440000D02*
X157675000Y-126440000D01*
X156000000Y-129560000D02*
X156650000Y-129560000D01*
D12*
%TO.C,X1*%
X134575493Y-140213824D02*
X129749493Y-140213824D01*
X129749493Y-140213824D02*
X129749493Y-148595824D01*
X129749493Y-148595824D02*
X144481493Y-148595824D01*
X144395133Y-140163024D02*
X139655493Y-140163024D01*
X144481493Y-148595824D02*
X144481493Y-140213824D01*
D13*
%TO.C,U3*%
X147207537Y-115572268D02*
X147207537Y-129972268D01*
X147207537Y-129972268D02*
X165207537Y-129972268D01*
X165207537Y-115572268D02*
X165207537Y-129972268D01*
X171907537Y-115572268D02*
X165207537Y-115572268D01*
X165207537Y-129972268D02*
X171907537Y-129972268D01*
X165207537Y-115572268D02*
X147207537Y-115572268D01*
X171907537Y-129972268D02*
X171907537Y-115572268D01*
D14*
X151347537Y-130722268D02*
G75*
G03*
X151347537Y-130722268I-100000J0D01*
G01*
D11*
%TO.C,R3*%
X149355000Y-134723737D02*
X149355000Y-133276263D01*
X146645000Y-134723737D02*
X146645000Y-133276263D01*
%TO.C,R2*%
X118645000Y-78276263D02*
X118645000Y-79723737D01*
X121355000Y-78276263D02*
X121355000Y-79723737D01*
D13*
%TO.C,U1*%
X124117160Y-107318594D02*
X124117160Y-127638594D01*
X144437160Y-107318594D02*
X124117160Y-107318594D01*
X144437160Y-127638594D02*
X144437160Y-107318594D01*
X124117160Y-127638594D02*
X144437160Y-127638594D01*
D14*
X143267160Y-128278594D02*
G75*
G03*
X143267160Y-128278594I-100000J0D01*
G01*
D11*
%TO.C,R4*%
X125645000Y-81276263D02*
X125645000Y-82723737D01*
X128355000Y-81276263D02*
X128355000Y-82723737D01*
%TD*%
M02*
