%TF.GenerationSoftware,KiCad,Pcbnew,6.0.2+dfsg-1*%
%TF.CreationDate,2022-10-11T15:46:30-06:00*%
%TF.ProjectId,lvt_sao,6c76745f-7361-46f2-9e6b-696361645f70,rev?*%
%TF.SameCoordinates,Original*%
%TF.FileFunction,Profile,NP*%
%FSLAX46Y46*%
G04 Gerber Fmt 4.6, Leading zero omitted, Abs format (unit mm)*
G04 Created by KiCad (PCBNEW 6.0.2+dfsg-1) date 2022-10-11 15:46:30*
%MOMM*%
%LPD*%
G01*
G04 APERTURE LIST*
%TA.AperFunction,Profile*%
%ADD10C,0.100000*%
%TD*%
G04 APERTURE END LIST*
D10*
%TO.C,G\u002A\u002A\u002A*%
X121527296Y-71723178D02*
X121979202Y-71726355D01*
X121979202Y-71726355D02*
X122309496Y-71734914D01*
X122309496Y-71734914D02*
X122543474Y-71751524D01*
X122543474Y-71751524D02*
X122706433Y-71778855D01*
X122706433Y-71778855D02*
X122823668Y-71819575D01*
X122823668Y-71819575D02*
X122920475Y-71876356D01*
X122920475Y-71876356D02*
X123009670Y-71942348D01*
X123009670Y-71942348D02*
X123221545Y-72152140D01*
X123221545Y-72152140D02*
X123296348Y-72371192D01*
X123296348Y-72371192D02*
X123297628Y-72409711D01*
X123297628Y-72409711D02*
X123308467Y-72550266D01*
X123308467Y-72550266D02*
X123368337Y-72631613D01*
X123368337Y-72631613D02*
X123518265Y-72679307D01*
X123518265Y-72679307D02*
X123792712Y-72718102D01*
X123792712Y-72718102D02*
X124153345Y-72763499D01*
X124153345Y-72763499D02*
X124517039Y-72811140D01*
X124517039Y-72811140D02*
X124675255Y-72832679D01*
X124675255Y-72832679D02*
X125062712Y-72886593D01*
X125062712Y-72886593D02*
X125088022Y-73411491D01*
X125088022Y-73411491D02*
X125115035Y-73726996D01*
X125115035Y-73726996D02*
X125174010Y-73934890D01*
X125174010Y-73934890D02*
X125288385Y-74099553D01*
X125288385Y-74099553D02*
X125367853Y-74180236D01*
X125367853Y-74180236D02*
X125567499Y-74457459D01*
X125567499Y-74457459D02*
X125635381Y-74752551D01*
X125635381Y-74752551D02*
X125570209Y-75022585D01*
X125570209Y-75022585D02*
X125398685Y-75207439D01*
X125398685Y-75207439D02*
X125174996Y-75354005D01*
X125174996Y-75354005D02*
X125366888Y-75488411D01*
X125366888Y-75488411D02*
X125438583Y-75528584D01*
X125438583Y-75528584D02*
X125536297Y-75557051D01*
X125536297Y-75557051D02*
X125681005Y-75573751D01*
X125681005Y-75573751D02*
X125893687Y-75578618D01*
X125893687Y-75578618D02*
X126195320Y-75571591D01*
X126195320Y-75571591D02*
X126606880Y-75552604D01*
X126606880Y-75552604D02*
X127149348Y-75521596D01*
X127149348Y-75521596D02*
X127803658Y-75481032D01*
X127803658Y-75481032D02*
X130048536Y-75339246D01*
X130048536Y-75339246D02*
X130361699Y-75546487D01*
X130361699Y-75546487D02*
X130560083Y-75697247D01*
X130560083Y-75697247D02*
X130639657Y-75833704D01*
X130639657Y-75833704D02*
X130636140Y-76017551D01*
X130636140Y-76017551D02*
X130635795Y-76019915D01*
X130635795Y-76019915D02*
X130598015Y-76185631D01*
X130598015Y-76185631D02*
X130514584Y-76262840D01*
X130514584Y-76262840D02*
X130332988Y-76285082D01*
X130332988Y-76285082D02*
X130219042Y-76286101D01*
X130219042Y-76286101D02*
X129841356Y-76286101D01*
X129841356Y-76286101D02*
X129841356Y-77114249D01*
X129841356Y-77114249D02*
X130252954Y-77245873D01*
X130252954Y-77245873D02*
X130422600Y-77326031D01*
X130422600Y-77326031D02*
X130706305Y-77488467D01*
X130706305Y-77488467D02*
X131077736Y-77715745D01*
X131077736Y-77715745D02*
X131510556Y-77990427D01*
X131510556Y-77990427D02*
X131978432Y-78295075D01*
X131978432Y-78295075D02*
X132455028Y-78612252D01*
X132455028Y-78612252D02*
X132914010Y-78924520D01*
X132914010Y-78924520D02*
X133329043Y-79214441D01*
X133329043Y-79214441D02*
X133673791Y-79464579D01*
X133673791Y-79464579D02*
X133921920Y-79657496D01*
X133921920Y-79657496D02*
X134004777Y-79730128D01*
X134004777Y-79730128D02*
X134119293Y-79927458D01*
X134119293Y-79927458D02*
X134105318Y-80068501D01*
X134105318Y-80068501D02*
X133995138Y-80277218D01*
X133995138Y-80277218D02*
X133780387Y-80572975D01*
X133780387Y-80572975D02*
X133485894Y-80929186D01*
X133485894Y-80929186D02*
X133136489Y-81319268D01*
X133136489Y-81319268D02*
X132757000Y-81716639D01*
X132757000Y-81716639D02*
X132372256Y-82094715D01*
X132372256Y-82094715D02*
X132007085Y-82426912D01*
X132007085Y-82426912D02*
X131686316Y-82686646D01*
X131686316Y-82686646D02*
X131607098Y-82743276D01*
X131607098Y-82743276D02*
X131237078Y-82997857D01*
X131237078Y-82997857D02*
X130910337Y-82523444D01*
X130910337Y-82523444D02*
X130720944Y-82276840D01*
X130720944Y-82276840D02*
X130563465Y-82124372D01*
X130563465Y-82124372D02*
X130473627Y-82091229D01*
X130473627Y-82091229D02*
X130350059Y-82162495D01*
X130350059Y-82162495D02*
X130139158Y-82305453D01*
X130139158Y-82305453D02*
X129925946Y-82460104D01*
X129925946Y-82460104D02*
X129678624Y-82659661D01*
X129678624Y-82659661D02*
X129556215Y-82804913D01*
X129556215Y-82804913D02*
X129534392Y-82927471D01*
X129534392Y-82927471D02*
X129542024Y-82958983D01*
X129542024Y-82958983D02*
X129657621Y-83571359D01*
X129657621Y-83571359D02*
X129606833Y-84140323D01*
X129606833Y-84140323D02*
X129388782Y-84670013D01*
X129388782Y-84670013D02*
X129095597Y-85065742D01*
X129095597Y-85065742D02*
X128696560Y-85509567D01*
X128696560Y-85509567D02*
X128757143Y-86944099D01*
X128757143Y-86944099D02*
X128778961Y-87421938D01*
X128778961Y-87421938D02*
X128800977Y-87835972D01*
X128800977Y-87835972D02*
X128821400Y-88157198D01*
X128821400Y-88157198D02*
X128838434Y-88356612D01*
X128838434Y-88356612D02*
X128847732Y-88408635D01*
X128847732Y-88408635D02*
X128936404Y-88420443D01*
X128936404Y-88420443D02*
X129182661Y-88444690D01*
X129182661Y-88444690D02*
X129572426Y-88480178D01*
X129572426Y-88480178D02*
X130091622Y-88525707D01*
X130091622Y-88525707D02*
X130726172Y-88580075D01*
X130726172Y-88580075D02*
X131461997Y-88642083D01*
X131461997Y-88642083D02*
X132285022Y-88710531D01*
X132285022Y-88710531D02*
X133181169Y-88784218D01*
X133181169Y-88784218D02*
X134136361Y-88861945D01*
X134136361Y-88861945D02*
X134676327Y-88905543D01*
X134676327Y-88905543D02*
X137092164Y-89100054D01*
X137092164Y-89100054D02*
X139343382Y-89281283D01*
X139343382Y-89281283D02*
X141437007Y-89449794D01*
X141437007Y-89449794D02*
X143380064Y-89606150D01*
X143380064Y-89606150D02*
X145179581Y-89750914D01*
X145179581Y-89750914D02*
X146842583Y-89884650D01*
X146842583Y-89884650D02*
X148376096Y-90007922D01*
X148376096Y-90007922D02*
X149787148Y-90121291D01*
X149787148Y-90121291D02*
X151082764Y-90225323D01*
X151082764Y-90225323D02*
X152269970Y-90320580D01*
X152269970Y-90320580D02*
X153355794Y-90407625D01*
X153355794Y-90407625D02*
X154347260Y-90487023D01*
X154347260Y-90487023D02*
X155251395Y-90559335D01*
X155251395Y-90559335D02*
X156075227Y-90625127D01*
X156075227Y-90625127D02*
X156825780Y-90684960D01*
X156825780Y-90684960D02*
X157510081Y-90739399D01*
X157510081Y-90739399D02*
X158135157Y-90789006D01*
X158135157Y-90789006D02*
X158708033Y-90834346D01*
X158708033Y-90834346D02*
X159235736Y-90875981D01*
X159235736Y-90875981D02*
X159725292Y-90914475D01*
X159725292Y-90914475D02*
X160020000Y-90937579D01*
X160020000Y-90937579D02*
X160846227Y-91004413D01*
X160846227Y-91004413D02*
X161590668Y-91068873D01*
X161590668Y-91068873D02*
X162238366Y-91129418D01*
X162238366Y-91129418D02*
X162774360Y-91184510D01*
X162774360Y-91184510D02*
X163183691Y-91232610D01*
X163183691Y-91232610D02*
X163451400Y-91272179D01*
X163451400Y-91272179D02*
X163562527Y-91301678D01*
X163562527Y-91301678D02*
X163563000Y-91302106D01*
X163563000Y-91302106D02*
X163607689Y-91387585D01*
X163607689Y-91387585D02*
X163721902Y-91622544D01*
X163721902Y-91622544D02*
X163902521Y-92000333D01*
X163902521Y-92000333D02*
X164146429Y-92514298D01*
X164146429Y-92514298D02*
X164450507Y-93157789D01*
X164450507Y-93157789D02*
X164811639Y-93924154D01*
X164811639Y-93924154D02*
X165226708Y-94806741D01*
X165226708Y-94806741D02*
X165692595Y-95798898D01*
X165692595Y-95798898D02*
X166206184Y-96893974D01*
X166206184Y-96893974D02*
X166764357Y-98085316D01*
X166764357Y-98085316D02*
X167363996Y-99366274D01*
X167363996Y-99366274D02*
X168001985Y-100730196D01*
X168001985Y-100730196D02*
X168675205Y-102170429D01*
X168675205Y-102170429D02*
X169380540Y-103680323D01*
X169380540Y-103680323D02*
X170114871Y-105253224D01*
X170114871Y-105253224D02*
X170875081Y-106882483D01*
X170875081Y-106882483D02*
X171658054Y-108561446D01*
X171658054Y-108561446D02*
X172460671Y-110283463D01*
X172460671Y-110283463D02*
X172757825Y-110921240D01*
X172757825Y-110921240D02*
X181853718Y-130445531D01*
X181853718Y-130445531D02*
X181577534Y-130789206D01*
X181577534Y-130789206D02*
X181301349Y-131132881D01*
X181301349Y-131132881D02*
X179349831Y-131132881D01*
X179349831Y-131132881D02*
X179351977Y-131757118D01*
X179351977Y-131757118D02*
X179354218Y-131950523D01*
X179354218Y-131950523D02*
X179359966Y-132299830D01*
X179359966Y-132299830D02*
X179368896Y-132788782D01*
X179368896Y-132788782D02*
X179380684Y-133401119D01*
X179380684Y-133401119D02*
X179395004Y-134120584D01*
X179395004Y-134120584D02*
X179411531Y-134930918D01*
X179411531Y-134930918D02*
X179429939Y-135815862D01*
X179429939Y-135815862D02*
X179449904Y-136759160D01*
X179449904Y-136759160D02*
X179471100Y-137744551D01*
X179471100Y-137744551D02*
X179478984Y-138107118D01*
X179478984Y-138107118D02*
X179500401Y-139091961D01*
X179500401Y-139091961D02*
X179520722Y-140031567D01*
X179520722Y-140031567D02*
X179539628Y-140910868D01*
X179539628Y-140910868D02*
X179556799Y-141714799D01*
X179556799Y-141714799D02*
X179571918Y-142428294D01*
X179571918Y-142428294D02*
X179584665Y-143036287D01*
X179584665Y-143036287D02*
X179594723Y-143523712D01*
X179594723Y-143523712D02*
X179601772Y-143875503D01*
X179601772Y-143875503D02*
X179605494Y-144076594D01*
X179605494Y-144076594D02*
X179605990Y-144112712D01*
X179605990Y-144112712D02*
X179608136Y-144392542D01*
X179608136Y-144392542D02*
X181071865Y-144392542D01*
X181071865Y-144392542D02*
X181071865Y-145930355D01*
X181071865Y-145930355D02*
X181074871Y-146459026D01*
X181074871Y-146459026D02*
X181083199Y-146956204D01*
X181083199Y-146956204D02*
X181095811Y-147384564D01*
X181095811Y-147384564D02*
X181111671Y-147706781D01*
X181111671Y-147706781D02*
X181125439Y-147859037D01*
X181125439Y-147859037D02*
X181179014Y-148249906D01*
X181179014Y-148249906D02*
X180415100Y-148314898D01*
X180415100Y-148314898D02*
X180032990Y-148336371D01*
X180032990Y-148336371D02*
X179637765Y-148332732D01*
X179637765Y-148332732D02*
X179185484Y-148301486D01*
X179185484Y-148301486D02*
X178632203Y-148240138D01*
X178632203Y-148240138D02*
X178273560Y-148193289D01*
X178273560Y-148193289D02*
X177834387Y-148133701D01*
X177834387Y-148133701D02*
X177259608Y-148055562D01*
X177259608Y-148055562D02*
X176584232Y-147963637D01*
X176584232Y-147963637D02*
X175843270Y-147862697D01*
X175843270Y-147862697D02*
X175071732Y-147757508D01*
X175071732Y-147757508D02*
X174304628Y-147652838D01*
X174304628Y-147652838D02*
X174066250Y-147620293D01*
X174066250Y-147620293D02*
X173221105Y-147506694D01*
X173221105Y-147506694D02*
X172518097Y-147416944D01*
X172518097Y-147416944D02*
X171929202Y-147348455D01*
X171929202Y-147348455D02*
X171426397Y-147298637D01*
X171426397Y-147298637D02*
X170981657Y-147264904D01*
X170981657Y-147264904D02*
X170566958Y-147244667D01*
X170566958Y-147244667D02*
X170154275Y-147235339D01*
X170154275Y-147235339D02*
X169882137Y-147233898D01*
X169882137Y-147233898D02*
X169366602Y-147235483D01*
X169366602Y-147235483D02*
X168995193Y-147242380D01*
X168995193Y-147242380D02*
X168739848Y-147257798D01*
X168739848Y-147257798D02*
X168572502Y-147284948D01*
X168572502Y-147284948D02*
X168465092Y-147327040D01*
X168465092Y-147327040D02*
X168389553Y-147387283D01*
X168389553Y-147387283D02*
X168371300Y-147406725D01*
X168371300Y-147406725D02*
X168283386Y-147518709D01*
X168283386Y-147518709D02*
X168275216Y-147616945D01*
X168275216Y-147616945D02*
X168357831Y-147756264D01*
X168357831Y-147756264D02*
X168470993Y-147901810D01*
X168470993Y-147901810D02*
X168711788Y-148233063D01*
X168711788Y-148233063D02*
X168999004Y-148671374D01*
X168999004Y-148671374D02*
X169303945Y-149168845D01*
X169303945Y-149168845D02*
X169597918Y-149677578D01*
X169597918Y-149677578D02*
X169852227Y-150149674D01*
X169852227Y-150149674D02*
X170004757Y-150462020D01*
X170004757Y-150462020D02*
X170191788Y-150919387D01*
X170191788Y-150919387D02*
X170326938Y-151373570D01*
X170326938Y-151373570D02*
X170415436Y-151861175D01*
X170415436Y-151861175D02*
X170462515Y-152418813D01*
X170462515Y-152418813D02*
X170473403Y-153083090D01*
X170473403Y-153083090D02*
X170461447Y-153658261D01*
X170461447Y-153658261D02*
X170432043Y-154326855D01*
X170432043Y-154326855D02*
X170388128Y-154864784D01*
X170388128Y-154864784D02*
X170325154Y-155313297D01*
X170325154Y-155313297D02*
X170238572Y-155713644D01*
X170238572Y-155713644D02*
X170232027Y-155738951D01*
X170232027Y-155738951D02*
X170024588Y-156359704D01*
X170024588Y-156359704D02*
X169716711Y-157049728D01*
X169716711Y-157049728D02*
X169333607Y-157760539D01*
X169333607Y-157760539D02*
X168900486Y-158443651D01*
X168900486Y-158443651D02*
X168636093Y-158808318D01*
X168636093Y-158808318D02*
X168089854Y-159448513D01*
X168089854Y-159448513D02*
X167464036Y-160057700D01*
X167464036Y-160057700D02*
X166789823Y-160612686D01*
X166789823Y-160612686D02*
X166098400Y-161090278D01*
X166098400Y-161090278D02*
X165420951Y-161467283D01*
X165420951Y-161467283D02*
X164788660Y-161720510D01*
X164788660Y-161720510D02*
X164677626Y-161752338D01*
X164677626Y-161752338D02*
X164361586Y-161806141D01*
X164361586Y-161806141D02*
X163917630Y-161841033D01*
X163917630Y-161841033D02*
X163388994Y-161857101D01*
X163388994Y-161857101D02*
X162818913Y-161854436D01*
X162818913Y-161854436D02*
X162250624Y-161833124D01*
X162250624Y-161833124D02*
X161727362Y-161793255D01*
X161727362Y-161793255D02*
X161354577Y-161745541D01*
X161354577Y-161745541D02*
X160734559Y-161599930D01*
X160734559Y-161599930D02*
X160044591Y-161363315D01*
X160044591Y-161363315D02*
X159342668Y-161059950D01*
X159342668Y-161059950D02*
X158686781Y-160714092D01*
X158686781Y-160714092D02*
X158295096Y-160465926D01*
X158295096Y-160465926D02*
X157483753Y-159802916D01*
X157483753Y-159802916D02*
X156758051Y-159001587D01*
X156758051Y-159001587D02*
X156128397Y-158078517D01*
X156128397Y-158078517D02*
X155605196Y-157050286D01*
X155605196Y-157050286D02*
X155198855Y-155933473D01*
X155198855Y-155933473D02*
X155020016Y-155248079D01*
X155020016Y-155248079D02*
X154941398Y-154793884D01*
X154941398Y-154793884D02*
X154906534Y-154297254D01*
X154906534Y-154297254D02*
X154911395Y-153697555D01*
X154911395Y-153697555D02*
X154913368Y-153643598D01*
X154913368Y-153643598D02*
X154950322Y-152678156D01*
X154950322Y-152678156D02*
X154064557Y-152532799D01*
X154064557Y-152532799D02*
X153689593Y-152476904D01*
X153689593Y-152476904D02*
X153376964Y-152440826D01*
X153376964Y-152440826D02*
X153166079Y-152428496D01*
X153166079Y-152428496D02*
X153099403Y-152436506D01*
X153099403Y-152436506D02*
X153036742Y-152542067D01*
X153036742Y-152542067D02*
X152961187Y-152760352D01*
X152961187Y-152760352D02*
X152914553Y-152937870D01*
X152914553Y-152937870D02*
X152772587Y-153376890D01*
X152772587Y-153376890D02*
X152544575Y-153891150D01*
X152544575Y-153891150D02*
X152259002Y-154427296D01*
X152259002Y-154427296D02*
X151944354Y-154931974D01*
X151944354Y-154931974D02*
X151629119Y-155351832D01*
X151629119Y-155351832D02*
X151620017Y-155362482D01*
X151620017Y-155362482D02*
X151203233Y-155805257D01*
X151203233Y-155805257D02*
X150719770Y-156249412D01*
X150719770Y-156249412D02*
X150203025Y-156669838D01*
X150203025Y-156669838D02*
X149686393Y-157041430D01*
X149686393Y-157041430D02*
X149203270Y-157339079D01*
X149203270Y-157339079D02*
X148787053Y-157537678D01*
X148787053Y-157537678D02*
X148676800Y-157575216D01*
X148676800Y-157575216D02*
X148129735Y-157706794D01*
X148129735Y-157706794D02*
X147484628Y-157812044D01*
X147484628Y-157812044D02*
X146791193Y-157887165D01*
X146791193Y-157887165D02*
X146099144Y-157928356D01*
X146099144Y-157928356D02*
X145458195Y-157931818D01*
X145458195Y-157931818D02*
X144918061Y-157893749D01*
X144918061Y-157893749D02*
X144780000Y-157873120D01*
X144780000Y-157873120D02*
X144016556Y-157665165D01*
X144016556Y-157665165D02*
X143250554Y-157304851D01*
X143250554Y-157304851D02*
X142469365Y-156785612D01*
X142469365Y-156785612D02*
X142067797Y-156463218D01*
X142067797Y-156463218D02*
X141440566Y-155897384D01*
X141440566Y-155897384D02*
X140933350Y-155354184D01*
X140933350Y-155354184D02*
X140508451Y-154787118D01*
X140508451Y-154787118D02*
X140128168Y-154149685D01*
X140128168Y-154149685D02*
X140011751Y-153927195D01*
X140011751Y-153927195D02*
X139776895Y-153422255D01*
X139776895Y-153422255D02*
X139607244Y-152940369D01*
X139607244Y-152940369D02*
X139493921Y-152437540D01*
X139493921Y-152437540D02*
X139428049Y-151869771D01*
X139428049Y-151869771D02*
X139400751Y-151193064D01*
X139400751Y-151193064D02*
X139398645Y-150888239D01*
X139398645Y-150888239D02*
X139398645Y-149883209D01*
X139398645Y-149883209D02*
X138946611Y-149935741D01*
X138946611Y-149935741D02*
X138782286Y-149951757D01*
X138782286Y-149951757D02*
X138462321Y-149980060D01*
X138462321Y-149980060D02*
X138002740Y-150019322D01*
X138002740Y-150019322D02*
X137419566Y-150068218D01*
X137419566Y-150068218D02*
X136728824Y-150125422D01*
X136728824Y-150125422D02*
X135946539Y-150189609D01*
X135946539Y-150189609D02*
X135088733Y-150259452D01*
X135088733Y-150259452D02*
X134171432Y-150333627D01*
X134171432Y-150333627D02*
X133210659Y-150410807D01*
X133210659Y-150410807D02*
X133024894Y-150425671D01*
X133024894Y-150425671D02*
X127555212Y-150863070D01*
X127555212Y-150863070D02*
X124113369Y-149941566D01*
X124113369Y-149941566D02*
X123269717Y-149715867D01*
X123269717Y-149715867D02*
X122390461Y-149480959D01*
X122390461Y-149480959D02*
X121509415Y-149245856D01*
X121509415Y-149245856D02*
X120660392Y-149019569D01*
X120660392Y-149019569D02*
X119877207Y-148811112D01*
X119877207Y-148811112D02*
X119193672Y-148629496D01*
X119193672Y-148629496D02*
X118657002Y-148487278D01*
X118657002Y-148487278D02*
X116642478Y-147954493D01*
X116642478Y-147954493D02*
X116660946Y-147186579D01*
X116660946Y-147186579D02*
X116672815Y-146841772D01*
X116672815Y-146841772D02*
X116688952Y-146568667D01*
X116688952Y-146568667D02*
X116706627Y-146408239D01*
X116706627Y-146408239D02*
X116714398Y-146383681D01*
X116714398Y-146383681D02*
X116804347Y-146371830D01*
X116804347Y-146371830D02*
X117037383Y-146354716D01*
X117037383Y-146354716D02*
X117384520Y-146333771D01*
X117384520Y-146333771D02*
X117816773Y-146310424D01*
X117816773Y-146310424D02*
X118305156Y-146286108D01*
X118305156Y-146286108D02*
X118820682Y-146262252D01*
X118820682Y-146262252D02*
X119334365Y-146240288D01*
X119334365Y-146240288D02*
X119817220Y-146221645D01*
X119817220Y-146221645D02*
X120240261Y-146207756D01*
X120240261Y-146207756D02*
X120327119Y-146205355D01*
X120327119Y-146205355D02*
X120382884Y-146197918D01*
X120382884Y-146197918D02*
X120424777Y-146164880D01*
X120424777Y-146164880D02*
X120454458Y-146085139D01*
X120454458Y-146085139D02*
X120473586Y-145937594D01*
X120473586Y-145937594D02*
X120483822Y-145701145D01*
X120483822Y-145701145D02*
X120486826Y-145354691D01*
X120486826Y-145354691D02*
X120484258Y-144877130D01*
X120484258Y-144877130D02*
X120478193Y-144284981D01*
X120478193Y-144284981D02*
X120469451Y-143675292D01*
X120469451Y-143675292D02*
X120457205Y-143075834D01*
X120457205Y-143075834D02*
X120442505Y-142524718D01*
X120442505Y-142524718D02*
X120426399Y-142060051D01*
X120426399Y-142060051D02*
X120409938Y-141719943D01*
X120409938Y-141719943D02*
X120405887Y-141658813D01*
X120405887Y-141658813D02*
X120378498Y-141311019D01*
X120378498Y-141311019D02*
X120348924Y-141100499D01*
X120348924Y-141100499D02*
X120303560Y-140992703D01*
X120303560Y-140992703D02*
X120228801Y-140953081D01*
X120228801Y-140953081D02*
X120125661Y-140947156D01*
X120125661Y-140947156D02*
X119980055Y-140941597D01*
X119980055Y-140941597D02*
X119869070Y-140912699D01*
X119869070Y-140912699D02*
X119786894Y-140839283D01*
X119786894Y-140839283D02*
X119727714Y-140700171D01*
X119727714Y-140700171D02*
X119685717Y-140474184D01*
X119685717Y-140474184D02*
X119655091Y-140140143D01*
X119655091Y-140140143D02*
X119630024Y-139676871D01*
X119630024Y-139676871D02*
X119604703Y-139063188D01*
X119604703Y-139063188D02*
X119604052Y-139046626D01*
X119604052Y-139046626D02*
X119584827Y-138512752D01*
X119584827Y-138512752D02*
X119571093Y-138037790D01*
X119571093Y-138037790D02*
X119563349Y-137648481D01*
X119563349Y-137648481D02*
X119562090Y-137371565D01*
X119562090Y-137371565D02*
X119567813Y-137233782D01*
X119567813Y-137233782D02*
X119570175Y-137224576D01*
X119570175Y-137224576D02*
X119673668Y-137174455D01*
X119673668Y-137174455D02*
X119810509Y-137160000D01*
X119810509Y-137160000D02*
X119985232Y-137135404D01*
X119985232Y-137135404D02*
X120056320Y-137094114D01*
X120056320Y-137094114D02*
X120058504Y-137002006D01*
X120058504Y-137002006D02*
X120055803Y-136747210D01*
X120055803Y-136747210D02*
X120048460Y-136339164D01*
X120048460Y-136339164D02*
X120036720Y-135787307D01*
X120036720Y-135787307D02*
X120020825Y-135101077D01*
X120020825Y-135101077D02*
X120001019Y-134289912D01*
X120001019Y-134289912D02*
X119977546Y-133363252D01*
X119977546Y-133363252D02*
X119950649Y-132330534D01*
X119950649Y-132330534D02*
X119920572Y-131201197D01*
X119920572Y-131201197D02*
X119887558Y-129984681D01*
X119887558Y-129984681D02*
X119851851Y-128690422D01*
X119851851Y-128690422D02*
X119813694Y-127327861D01*
X119813694Y-127327861D02*
X119773331Y-125906434D01*
X119773331Y-125906434D02*
X119731006Y-124435582D01*
X119731006Y-124435582D02*
X119719186Y-124028182D01*
X119719186Y-124028182D02*
X119675888Y-122534991D01*
X119675888Y-122534991D02*
X119633963Y-121082205D01*
X119633963Y-121082205D02*
X119593690Y-119679799D01*
X119593690Y-119679799D02*
X119555346Y-118337749D01*
X119555346Y-118337749D02*
X119519210Y-117066030D01*
X119519210Y-117066030D02*
X119485561Y-115874618D01*
X119485561Y-115874618D02*
X119454677Y-114773489D01*
X119454677Y-114773489D02*
X119426836Y-113772618D01*
X119426836Y-113772618D02*
X119402317Y-112881981D01*
X119402317Y-112881981D02*
X119381399Y-112111553D01*
X119381399Y-112111553D02*
X119364359Y-111471310D01*
X119364359Y-111471310D02*
X119351477Y-110971227D01*
X119351477Y-110971227D02*
X119343030Y-110621281D01*
X119343030Y-110621281D02*
X119339298Y-110431446D01*
X119339298Y-110431446D02*
X119339141Y-110413232D01*
X119339141Y-110413232D02*
X119341816Y-110092585D01*
X119341816Y-110092585D02*
X119361307Y-109903522D01*
X119361307Y-109903522D02*
X119410537Y-109805472D01*
X119410537Y-109805472D02*
X119502430Y-109757858D01*
X119502430Y-109757858D02*
X119552204Y-109744304D01*
X119552204Y-109744304D02*
X119767458Y-109690278D01*
X119767458Y-109690278D02*
X119767458Y-106463105D01*
X119767458Y-106463105D02*
X119768160Y-105623443D01*
X119768160Y-105623443D02*
X119770683Y-104940404D01*
X119770683Y-104940404D02*
X119775649Y-104398413D01*
X119775649Y-104398413D02*
X119783682Y-103981893D01*
X119783682Y-103981893D02*
X119795405Y-103675269D01*
X119795405Y-103675269D02*
X119811442Y-103462965D01*
X119811442Y-103462965D02*
X119832415Y-103329405D01*
X119832415Y-103329405D02*
X119858949Y-103259013D01*
X119858949Y-103259013D02*
X119891667Y-103236213D01*
X119891667Y-103236213D02*
X119896611Y-103235932D01*
X119896611Y-103235932D02*
X119931491Y-103218040D01*
X119931491Y-103218040D02*
X119959594Y-103153559D01*
X119959594Y-103153559D02*
X119981626Y-103026283D01*
X119981626Y-103026283D02*
X119998290Y-102820007D01*
X119998290Y-102820007D02*
X120010289Y-102518523D01*
X120010289Y-102518523D02*
X120018328Y-102105627D01*
X120018328Y-102105627D02*
X120023111Y-101565111D01*
X120023111Y-101565111D02*
X120025342Y-100880769D01*
X120025342Y-100880769D02*
X120025763Y-100262721D01*
X120025763Y-100262721D02*
X120026398Y-99463428D01*
X120026398Y-99463428D02*
X120028831Y-98819409D01*
X120028831Y-98819409D02*
X120033856Y-98313736D01*
X120033856Y-98313736D02*
X120042264Y-97929482D01*
X120042264Y-97929482D02*
X120054849Y-97649721D01*
X120054849Y-97649721D02*
X120072403Y-97457526D01*
X120072403Y-97457526D02*
X120095720Y-97335969D01*
X120095720Y-97335969D02*
X120125592Y-97268123D01*
X120125592Y-97268123D02*
X120162812Y-97237061D01*
X120162812Y-97237061D02*
X120167569Y-97235094D01*
X120167569Y-97235094D02*
X120205998Y-97208327D01*
X120205998Y-97208327D02*
X120235974Y-97149328D01*
X120235974Y-97149328D02*
X120257974Y-97040763D01*
X120257974Y-97040763D02*
X120272475Y-96865299D01*
X120272475Y-96865299D02*
X120279952Y-96605601D01*
X120279952Y-96605601D02*
X120280884Y-96244335D01*
X120280884Y-96244335D02*
X120275746Y-95764167D01*
X120275746Y-95764167D02*
X120265017Y-95147763D01*
X120265017Y-95147763D02*
X120249172Y-94377789D01*
X120249172Y-94377789D02*
X120247858Y-94316479D01*
X120247858Y-94316479D02*
X120231398Y-93539391D01*
X120231398Y-93539391D02*
X120219437Y-92916654D01*
X120219437Y-92916654D02*
X120212675Y-92430456D01*
X120212675Y-92430456D02*
X120211813Y-92062988D01*
X120211813Y-92062988D02*
X120217553Y-91796439D01*
X120217553Y-91796439D02*
X120230595Y-91612997D01*
X120230595Y-91612997D02*
X120251642Y-91494852D01*
X120251642Y-91494852D02*
X120281393Y-91424194D01*
X120281393Y-91424194D02*
X120320551Y-91383211D01*
X120320551Y-91383211D02*
X120364357Y-91357009D01*
X120364357Y-91357009D02*
X120407616Y-91330145D01*
X120407616Y-91330145D02*
X120443230Y-91289772D01*
X120443230Y-91289772D02*
X120471944Y-91220232D01*
X120471944Y-91220232D02*
X120494499Y-91105867D01*
X120494499Y-91105867D02*
X120511639Y-90931018D01*
X120511639Y-90931018D02*
X120524107Y-90680027D01*
X120524107Y-90680027D02*
X120532646Y-90337235D01*
X120532646Y-90337235D02*
X120537999Y-89886984D01*
X120537999Y-89886984D02*
X120540909Y-89313614D01*
X120540909Y-89313614D02*
X120542119Y-88601469D01*
X120542119Y-88601469D02*
X120542372Y-87734889D01*
X120542372Y-87734889D02*
X120542373Y-87605445D01*
X120542373Y-87605445D02*
X120542181Y-86717029D01*
X120542181Y-86717029D02*
X120541129Y-85985567D01*
X120541129Y-85985567D02*
X120538501Y-85395810D01*
X120538501Y-85395810D02*
X120533585Y-84932507D01*
X120533585Y-84932507D02*
X120525664Y-84580409D01*
X120525664Y-84580409D02*
X120514026Y-84324268D01*
X120514026Y-84324268D02*
X120497955Y-84148833D01*
X120497955Y-84148833D02*
X120476737Y-84038854D01*
X120476737Y-84038854D02*
X120449657Y-83979084D01*
X120449657Y-83979084D02*
X120416001Y-83954271D01*
X120416001Y-83954271D02*
X120375055Y-83949166D01*
X120375055Y-83949166D02*
X120371076Y-83949152D01*
X120371076Y-83949152D02*
X120204648Y-83919094D01*
X120204648Y-83919094D02*
X119939314Y-83840650D01*
X119939314Y-83840650D02*
X119660737Y-83741331D01*
X119660737Y-83741331D02*
X119342900Y-83624640D01*
X119342900Y-83624640D02*
X119055734Y-83529145D01*
X119055734Y-83529145D02*
X118884916Y-83481385D01*
X118884916Y-83481385D02*
X118691836Y-83385206D01*
X118691836Y-83385206D02*
X118648136Y-83262995D01*
X118648136Y-83262995D02*
X118623890Y-83166575D01*
X118623890Y-83166575D02*
X118525077Y-83110954D01*
X118525077Y-83110954D02*
X118312585Y-83080957D01*
X118312585Y-83080957D02*
X118153051Y-83070907D01*
X118153051Y-83070907D02*
X117657967Y-83045084D01*
X117657967Y-83045084D02*
X117632839Y-82378898D01*
X117632839Y-82378898D02*
X117611917Y-82023984D01*
X117611917Y-82023984D02*
X117575830Y-81803469D01*
X117575830Y-81803469D02*
X117515416Y-81679657D01*
X117515416Y-81679657D02*
X117450431Y-81628537D01*
X117450431Y-81628537D02*
X117286473Y-81583909D01*
X117286473Y-81583909D02*
X117202687Y-81681028D01*
X117202687Y-81681028D02*
X117184407Y-81863145D01*
X117184407Y-81863145D02*
X117114411Y-82077226D01*
X117114411Y-82077226D02*
X116970577Y-82241381D01*
X116970577Y-82241381D02*
X116829132Y-82364775D01*
X116829132Y-82364775D02*
X116814075Y-82454011D01*
X116814075Y-82454011D02*
X116914635Y-82579051D01*
X116914635Y-82579051D02*
X116918028Y-82582694D01*
X116918028Y-82582694D02*
X117104698Y-82891090D01*
X117104698Y-82891090D02*
X117217502Y-83311932D01*
X117217502Y-83311932D02*
X117246067Y-83797595D01*
X117246067Y-83797595D02*
X117229880Y-84014387D01*
X117229880Y-84014387D02*
X117158835Y-84388369D01*
X117158835Y-84388369D02*
X117021093Y-84698580D01*
X117021093Y-84698580D02*
X116852015Y-84945650D01*
X116852015Y-84945650D02*
X116496774Y-85342908D01*
X116496774Y-85342908D02*
X116121982Y-85594682D01*
X116121982Y-85594682D02*
X115680714Y-85724307D01*
X115680714Y-85724307D02*
X115222828Y-85755871D01*
X115222828Y-85755871D02*
X114561072Y-85692580D01*
X114561072Y-85692580D02*
X114008996Y-85497846D01*
X114008996Y-85497846D02*
X113562228Y-85169245D01*
X113562228Y-85169245D02*
X113216395Y-84704353D01*
X113216395Y-84704353D02*
X113170734Y-84618341D01*
X113170734Y-84618341D02*
X113050217Y-84352765D01*
X113050217Y-84352765D02*
X112987818Y-84115213D01*
X112987818Y-84115213D02*
X112970683Y-83833558D01*
X112970683Y-83833558D02*
X112979918Y-83547708D01*
X112979918Y-83547708D02*
X113005194Y-83203105D01*
X113005194Y-83203105D02*
X113049447Y-82977187D01*
X113049447Y-82977187D02*
X113129212Y-82816450D01*
X113129212Y-82816450D02*
X113247983Y-82680338D01*
X113247983Y-82680338D02*
X113484174Y-82444147D01*
X113484174Y-82444147D02*
X113175309Y-82184839D01*
X113175309Y-82184839D02*
X112866445Y-81925532D01*
X112866445Y-81925532D02*
X112928628Y-80862422D01*
X112928628Y-80862422D02*
X112958324Y-80406692D01*
X112958324Y-80406692D02*
X112989670Y-80087349D01*
X112989670Y-80087349D02*
X113030077Y-79868671D01*
X113030077Y-79868671D02*
X113086955Y-79714939D01*
X113086955Y-79714939D02*
X113167717Y-79590431D01*
X113167717Y-79590431D02*
X113201026Y-79549487D01*
X113201026Y-79549487D02*
X113380592Y-79384858D01*
X113380592Y-79384858D02*
X113551316Y-79302005D01*
X113551316Y-79302005D02*
X113575790Y-79299661D01*
X113575790Y-79299661D02*
X113697181Y-79255368D01*
X113697181Y-79255368D02*
X113739174Y-79095284D01*
X113739174Y-79095284D02*
X113740339Y-79041356D01*
X113740339Y-79041356D02*
X113763507Y-78856752D01*
X113763507Y-78856752D02*
X113861988Y-78789219D01*
X113861988Y-78789219D02*
X113955594Y-78783050D01*
X113955594Y-78783050D02*
X114080598Y-78770135D01*
X114080598Y-78770135D02*
X114144639Y-78702804D01*
X114144639Y-78702804D02*
X114167941Y-78538184D01*
X114167941Y-78538184D02*
X114170848Y-78326711D01*
X114170848Y-78326711D02*
X114154622Y-78051597D01*
X114154622Y-78051597D02*
X114113085Y-77844695D01*
X114113085Y-77844695D02*
X114079538Y-77779063D01*
X114079538Y-77779063D02*
X114031092Y-77644915D01*
X114031092Y-77644915D02*
X114011240Y-77407358D01*
X114011240Y-77407358D02*
X114014962Y-77266758D01*
X114014962Y-77266758D02*
X114041695Y-76845762D01*
X114041695Y-76845762D02*
X115483899Y-76822155D01*
X115483899Y-76822155D02*
X116926102Y-76798548D01*
X116926102Y-76798548D02*
X116926102Y-76286101D01*
X116926102Y-76286101D02*
X116295348Y-76286101D01*
X116295348Y-76286101D02*
X115954426Y-76279100D01*
X115954426Y-76279100D02*
X115735890Y-76249976D01*
X115735890Y-76249976D02*
X115590211Y-76186547D01*
X115590211Y-76186547D02*
X115475067Y-76084359D01*
X115475067Y-76084359D02*
X115402799Y-75998546D01*
X115402799Y-75998546D02*
X115352401Y-75900853D01*
X115352401Y-75900853D02*
X115320660Y-75761780D01*
X115320660Y-75761780D02*
X115304363Y-75551826D01*
X115304363Y-75551826D02*
X115300298Y-75241489D01*
X115300298Y-75241489D02*
X115305250Y-74801271D01*
X115305250Y-74801271D02*
X115309380Y-74563128D01*
X115309380Y-74563128D02*
X115333221Y-73243641D01*
X115333221Y-73243641D02*
X115699153Y-73121764D01*
X115699153Y-73121764D02*
X115933506Y-73026023D01*
X115933506Y-73026023D02*
X116041128Y-72919996D01*
X116041128Y-72919996D02*
X116065085Y-72780794D01*
X116065085Y-72780794D02*
X116065085Y-72561701D01*
X116065085Y-72561701D02*
X118820339Y-72686563D01*
X118820339Y-72686563D02*
X118820339Y-72347135D01*
X118820339Y-72347135D02*
X118826516Y-72152968D01*
X118826516Y-72152968D02*
X118858419Y-72003863D01*
X118858419Y-72003863D02*
X118936107Y-71893879D01*
X118936107Y-71893879D02*
X119079639Y-71817074D01*
X119079639Y-71817074D02*
X119309076Y-71767506D01*
X119309076Y-71767506D02*
X119644475Y-71739235D01*
X119644475Y-71739235D02*
X120105897Y-71726319D01*
X120105897Y-71726319D02*
X120713400Y-71722815D01*
X120713400Y-71722815D02*
X120928483Y-71722712D01*
X120928483Y-71722712D02*
X121527296Y-71723178D01*
%TD*%
M02*
