M48
; DRILL file {KiCad 6.0.2+dfsg-1} date Tue 11 Oct 2022 03:46:16 PM MDT
; FORMAT={-:-/ absolute / inch / decimal}
; #@! TF.CreationDate,2022-10-11T15:46:16-06:00
; #@! TF.GenerationSoftware,Kicad,Pcbnew,6.0.2+dfsg-1
; #@! TF.FileFunction,Plated,1,2,PTH
FMAT,2
INCH
; #@! TA.AperFunction,Plated,PTH,ViaDrill
T1C0.0157
; #@! TA.AperFunction,Plated,PTH,ComponentDrill
T2C0.0315
; #@! TA.AperFunction,Plated,PTH,ComponentDrill
T3C0.0354
; #@! TA.AperFunction,Plated,PTH,ComponentDrill
T4C0.0400
%
G90
G05
T1
X4.7244Y-3.1102
X5.0Y-3.1102
X5.3543Y-4.4488
X5.4331Y-4.5276
X5.5118Y-4.8819
X5.748Y-5.4331
X6.2205Y-4.5669
X6.3386Y-5.0
T2
X4.9365Y-4.2701
X4.9365Y-4.9801
X5.0365Y-4.2701
X5.0365Y-4.9801
X5.1365Y-4.2701
X5.1365Y-4.9801
X5.2365Y-4.2701
X5.2365Y-4.9801
X5.3365Y-4.2701
X5.3365Y-4.9801
X5.4365Y-4.2701
X5.4365Y-4.9801
X5.5365Y-4.2701
X5.5365Y-4.9801
X5.6365Y-4.2701
X5.6365Y-4.9801
X5.8546Y-4.6792
X5.8546Y-4.7792
X5.8546Y-4.8792
X5.8546Y-4.9792
X5.9546Y-4.6792
X5.9546Y-4.7792
X5.9546Y-4.8792
X5.9546Y-4.9792
T3
X5.3859Y-4.357
X5.4843Y-4.357
X5.5827Y-4.357
T4
X5.3006Y-5.631
X5.3006Y-5.731
X5.4006Y-5.631
X5.4006Y-5.731
X5.5006Y-5.631
X5.5006Y-5.731
T0
M30
