%TF.GenerationSoftware,KiCad,Pcbnew,6.0.2+dfsg-1*%
%TF.CreationDate,2022-10-11T15:46:29-06:00*%
%TF.ProjectId,lvt_sao,6c76745f-7361-46f2-9e6b-696361645f70,rev?*%
%TF.SameCoordinates,Original*%
%TF.FileFunction,Soldermask,Bot*%
%TF.FilePolarity,Negative*%
%FSLAX46Y46*%
G04 Gerber Fmt 4.6, Leading zero omitted, Abs format (unit mm)*
G04 Created by KiCad (PCBNEW 6.0.2+dfsg-1) date 2022-10-11 15:46:29*
%MOMM*%
%LPD*%
G01*
G04 APERTURE LIST*
G04 Aperture macros list*
%AMRoundRect*
0 Rectangle with rounded corners*
0 $1 Rounding radius*
0 $2 $3 $4 $5 $6 $7 $8 $9 X,Y pos of 4 corners*
0 Add a 4 corners polygon primitive as box body*
4,1,4,$2,$3,$4,$5,$6,$7,$8,$9,$2,$3,0*
0 Add four circle primitives for the rounded corners*
1,1,$1+$1,$2,$3*
1,1,$1+$1,$4,$5*
1,1,$1+$1,$6,$7*
1,1,$1+$1,$8,$9*
0 Add four rect primitives between the rounded corners*
20,1,$1+$1,$2,$3,$4,$5,0*
20,1,$1+$1,$4,$5,$6,$7,0*
20,1,$1+$1,$6,$7,$8,$9,0*
20,1,$1+$1,$8,$9,$2,$3,0*%
G04 Aperture macros list end*
%ADD10R,1.000000X2.510000*%
%ADD11RoundRect,0.250000X-1.075000X0.400000X-1.075000X-0.400000X1.075000X-0.400000X1.075000X0.400000X0*%
%ADD12RoundRect,0.250000X0.400000X1.075000X-0.400000X1.075000X-0.400000X-1.075000X0.400000X-1.075000X0*%
%ADD13RoundRect,0.150000X0.587500X0.150000X-0.587500X0.150000X-0.587500X-0.150000X0.587500X-0.150000X0*%
%ADD14C,1.500000*%
%ADD15C,2.000000*%
%ADD16O,1.727200X1.727200*%
%ADD17R,1.727200X1.727200*%
%ADD18C,1.727200*%
%ADD19R,1.500000X1.500000*%
%ADD20RoundRect,0.250000X1.075000X-0.400000X1.075000X0.400000X-1.075000X0.400000X-1.075000X-0.400000X0*%
%ADD21R,1.308000X1.308000*%
%ADD22C,1.308000*%
G04 APERTURE END LIST*
%TO.C,G\u002A\u002A\u002A*%
G36*
X159267229Y-95023059D02*
G01*
X159508075Y-95026913D01*
X159689309Y-95032690D01*
X159802629Y-95040234D01*
X159839737Y-95049386D01*
X159839067Y-95051013D01*
X159815682Y-95105132D01*
X159760775Y-95231374D01*
X159676364Y-95425115D01*
X159564465Y-95681734D01*
X159427097Y-95996609D01*
X159266278Y-96365116D01*
X159084025Y-96782633D01*
X158882355Y-97244539D01*
X158663287Y-97746211D01*
X158428838Y-98283027D01*
X158181026Y-98850364D01*
X157921869Y-99443600D01*
X157653383Y-100058113D01*
X155481309Y-105029285D01*
X154071603Y-105029285D01*
X153830659Y-105028850D01*
X153514357Y-105026864D01*
X153233596Y-105023457D01*
X152998173Y-105018835D01*
X152817884Y-105013204D01*
X152702527Y-105006767D01*
X152661897Y-104999732D01*
X152663435Y-104993928D01*
X152689338Y-104927810D01*
X152743970Y-104797218D01*
X152823107Y-104611991D01*
X152922523Y-104381975D01*
X153037994Y-104117009D01*
X153165296Y-103826936D01*
X153210689Y-103723856D01*
X153322323Y-103470385D01*
X153462531Y-103152076D01*
X153627679Y-102777169D01*
X153814139Y-102353907D01*
X154018279Y-101890531D01*
X154236468Y-101395283D01*
X154465075Y-100876404D01*
X154700470Y-100342136D01*
X154939022Y-99800721D01*
X155177099Y-99260399D01*
X155357529Y-98850911D01*
X155581038Y-98343635D01*
X155795827Y-97856132D01*
X155999077Y-97394798D01*
X156187970Y-96966033D01*
X156359688Y-96576232D01*
X156511413Y-96231793D01*
X156640327Y-95939114D01*
X156743611Y-95704592D01*
X156818446Y-95534624D01*
X156862016Y-95435607D01*
X157038531Y-95034110D01*
X158446273Y-95022970D01*
X158639901Y-95021751D01*
X158975071Y-95021286D01*
X159267229Y-95023059D01*
G37*
%TD*%
D10*
%TO.C,LS1*%
X125730000Y-130345000D03*
X128270000Y-133655000D03*
%TD*%
%TO.C,J1*%
X124650000Y-101345000D03*
X127190000Y-104655000D03*
X129730000Y-101345000D03*
X132270000Y-104655000D03*
X134810000Y-101345000D03*
X137350000Y-104655000D03*
%TD*%
D11*
%TO.C,R7*%
X161000000Y-121450000D03*
X161000000Y-124550000D03*
%TD*%
%TO.C,R6*%
X161000000Y-115450000D03*
X161000000Y-118550000D03*
%TD*%
%TO.C,R5*%
X143000000Y-120450000D03*
X143000000Y-123550000D03*
%TD*%
D12*
%TO.C,R1*%
X143550000Y-131000000D03*
X140450000Y-131000000D03*
%TD*%
D13*
%TO.C,Q1*%
X156937500Y-127050000D03*
X156937500Y-128950000D03*
X155062500Y-128000000D03*
%TD*%
D14*
%TO.C,U2*%
X136801336Y-110668547D03*
X139301336Y-110668547D03*
X141801336Y-110668547D03*
D15*
X124301336Y-119668547D03*
X154301336Y-119668547D03*
%TD*%
D16*
%TO.C,X1*%
X134635493Y-143027824D03*
D17*
X134635493Y-145567824D03*
D16*
X137175493Y-143027824D03*
X137175493Y-145567824D03*
D18*
X139715493Y-143027824D03*
X139715493Y-145567824D03*
%TD*%
D19*
%TO.C,U3*%
X151247537Y-126472268D03*
D14*
X151247537Y-123932268D03*
X151247537Y-121392268D03*
X151247537Y-118852268D03*
X148707537Y-126472268D03*
X148707537Y-123932268D03*
X148707537Y-121392268D03*
X148707537Y-118852268D03*
%TD*%
D20*
%TO.C,R3*%
X148000000Y-135550000D03*
X148000000Y-132450000D03*
%TD*%
D11*
%TO.C,R2*%
X120000000Y-77450000D03*
X120000000Y-80550000D03*
%TD*%
D21*
%TO.C,U1*%
X143167160Y-126495594D03*
D22*
X140627160Y-126495594D03*
X138087160Y-126495594D03*
X135547160Y-126495594D03*
X133007160Y-126495594D03*
X130467160Y-126495594D03*
X127927160Y-126495594D03*
X125387160Y-126495594D03*
X125387160Y-108461594D03*
X127927160Y-108461594D03*
X130467160Y-108461594D03*
X133007160Y-108461594D03*
X135547160Y-108461594D03*
X138087160Y-108461594D03*
X140627160Y-108461594D03*
X143167160Y-108461594D03*
%TD*%
D11*
%TO.C,R4*%
X127000000Y-80450000D03*
X127000000Y-83550000D03*
%TD*%
M02*
